<svg width="334" height="110" viewBox="0 0 334 110" fill="none" xmlns="http://www.w3.org/2000/svg">
<g filter="url(#filter0_bd_2119_754)">
<rect x="22.1689" y="17" width="82.1868" height="26.1104" rx="13.0552" fill="#1E1E20" fill-opacity="0.75" shape-rendering="crispEdges"/>
<rect x="21.6689" y="16.5" width="83.1868" height="27.1104" rx="13.5552" stroke="url(#paint0_linear_2119_754)" stroke-opacity="0.04" shape-rendering="crispEdges"/>
<path d="M38.2364 27.042C37.9894 27.042 37.7893 27.1439 37.7893 27.2693V32.8401C37.7893 32.9657 37.9897 33.0675 38.2364 33.0675C38.4832 33.0675 38.6836 32.9656 38.6836 32.8401V27.2695C38.6836 27.1439 38.4835 27.042 38.2364 27.042Z" fill="url(#paint1_linear_2119_754)"/>
<path d="M35.1061 26.4771C34.859 26.4771 34.6589 26.6774 34.6589 26.9242V33.1852C34.6589 33.4322 34.8593 33.6323 35.1061 33.6323C35.3529 33.6323 35.5532 33.432 35.5532 33.1852V26.9242C35.5535 26.6774 35.3531 26.4771 35.1061 26.4771Z" fill="url(#paint2_linear_2119_754)"/>
<path d="M31.9757 28.0422C31.7287 28.0422 31.5286 28.2426 31.5286 28.4894V31.6199C31.5286 31.8669 31.7289 32.067 31.9757 32.067C32.2225 32.067 32.4228 31.8667 32.4228 31.6199V28.4896C32.4228 28.2426 32.2225 28.0422 31.9757 28.0422Z" fill="url(#paint3_linear_2119_754)"/>
<path d="M41.3669 26.4771C41.1199 26.4771 40.9198 26.6774 40.9198 26.9242V33.1852C40.9198 33.4322 41.1201 33.6323 41.3669 33.6323C41.6137 33.6323 41.8141 33.432 41.8141 33.1852V26.9242C41.8141 26.6774 41.6137 26.4771 41.3669 26.4771Z" fill="url(#paint4_linear_2119_754)"/>
<path d="M44.4973 28.0422C44.2503 28.0422 44.0502 28.2426 44.0502 28.4894V31.6199C44.0502 31.8669 44.2505 32.067 44.4973 32.067C44.7441 32.067 44.9445 31.8667 44.9445 31.6199V28.4896C44.9445 28.2426 44.7441 28.0422 44.4973 28.0422Z" fill="url(#paint5_linear_2119_754)"/>
<path d="M58.0541 34.0552H56.9606V30.9512H53.3271V34.0552H52.2287V26.9794H53.3271V29.9509H56.9606V26.9794H58.0541V34.0552ZM60.8442 34.0552H59.7998V28.7152H60.8442V32.388H60.9276L63.3892 28.7152H64.4336V34.0552H63.3892V30.3628H63.3107L60.8442 34.0552ZM67.974 34.1532C67.5784 34.1532 67.2221 34.096 66.905 33.9816C66.5879 33.8639 66.3264 33.6825 66.1204 33.4373C65.9145 33.1889 65.7952 32.8898 65.7625 32.54H66.8118C66.8641 32.7721 66.9916 32.9502 67.1943 33.0745C67.4003 33.1954 67.6601 33.2559 67.974 33.2559C68.3238 33.2559 68.6 33.1856 68.8027 33.045C69.0054 32.9012 69.1067 32.7083 69.1067 32.4664C69.1067 31.9597 68.7291 31.7064 67.974 31.7064H67.1747V30.8875H67.9593C68.2764 30.8875 68.515 30.8286 68.6752 30.711C68.8386 30.5933 68.9204 30.4216 68.9204 30.1961C68.9204 29.9901 68.837 29.8234 68.6703 29.6959C68.5068 29.5684 68.2698 29.5047 67.9593 29.5047C67.6618 29.5047 67.4133 29.5652 67.2139 29.6861C67.0178 29.8038 66.9034 29.9673 66.8707 30.1765H65.8556C65.9112 29.6959 66.1253 29.3151 66.498 29.0339C66.8739 28.7528 67.361 28.6122 67.9593 28.6122C68.5869 28.6122 69.0756 28.7446 69.4254 29.0094C69.7785 29.2742 69.955 29.6338 69.955 30.0882C69.955 30.3563 69.8765 30.59 69.7196 30.7894C69.566 30.9888 69.3633 31.1196 69.1116 31.1817V31.2651C69.4516 31.3435 69.7098 31.489 69.8864 31.7015C70.0662 31.9107 70.1561 32.1657 70.1561 32.4664C70.1561 32.9731 69.9566 33.3818 69.5578 33.6923C69.1623 33.9996 68.6343 34.1532 67.974 34.1532ZM72.8236 31.7211H72.5833V34.0552H71.529V28.7152H72.5833V30.8826H72.8187L74.7458 28.7152H75.9864L73.6866 31.1964L76.0844 34.0552H74.7703L72.8236 31.7211ZM78.2518 34.0552H77.2073V28.7152H78.2518V32.388H78.3352L80.7967 28.7152H81.8412V34.0552H80.7967V30.3628H80.7183L78.2518 34.0552ZM84.5087 34.0552H83.4643V28.7152H84.5087V32.388H84.5921L87.0537 28.7152H88.0981V34.0552H87.0537V30.3628H86.9752L84.5087 34.0552ZM83.9988 26.2978H84.8765C84.8765 26.5691 84.9566 26.7996 85.1168 26.9892C85.2769 27.1788 85.4862 27.2736 85.7444 27.2736C86.0092 27.2736 86.2201 27.1788 86.377 26.9892C86.5372 26.7996 86.6189 26.5691 86.6222 26.2978H87.495C87.495 26.7783 87.3332 27.1755 87.0095 27.4893C86.6859 27.7999 86.2642 27.9552 85.7444 27.9552C85.2246 27.9552 84.8029 27.7999 84.4793 27.4893C84.1589 27.1755 83.9988 26.7783 83.9988 26.2978Z" fill="white"/>
</g>
<g filter="url(#filter1_bd_2119_754)">
<rect x="116.407" y="17" width="94.1868" height="26.1104" rx="13.0552" fill="url(#paint6_linear_2119_754)" shape-rendering="crispEdges"/>
<rect x="115.907" y="16.5" width="95.1868" height="27.1104" rx="13.5552" stroke="url(#paint7_linear_2119_754)" stroke-opacity="0.04" shape-rendering="crispEdges"/>
<path d="M132.474 24.1294C132.227 24.1294 132.027 24.3297 132.027 24.5765V35.5331C132.027 35.7802 132.227 35.9803 132.474 35.9803C132.721 35.9803 132.921 35.7799 132.921 35.5331V24.5768C132.921 24.3297 132.721 24.1294 132.474 24.1294Z" fill="white"/>
<path d="M129.343 26.4771C129.096 26.4771 128.896 26.6774 128.896 26.9242V33.1852C128.896 33.4322 129.097 33.6323 129.343 33.6323C129.59 33.6323 129.791 33.432 129.791 33.1852V26.9242C129.791 26.6774 129.59 26.4771 129.343 26.4771Z" fill="white"/>
<path d="M126.213 28.0422C125.966 28.0422 125.766 28.2426 125.766 28.4894V31.6199C125.766 31.8669 125.966 32.067 126.213 32.067C126.46 32.067 126.66 31.8667 126.66 31.6199V28.4896C126.66 28.2426 126.46 28.0422 126.213 28.0422Z" fill="white"/>
<path d="M135.604 26.4771C135.357 26.4771 135.157 26.6774 135.157 26.9242V33.1852C135.157 33.4322 135.357 33.6323 135.604 33.6323C135.851 33.6323 136.051 33.432 136.051 33.1852V26.9242C136.051 26.6774 135.851 26.4771 135.604 26.4771Z" fill="white"/>
<path d="M138.735 28.0422C138.488 28.0422 138.287 28.2426 138.287 28.4894V31.6199C138.287 31.8669 138.488 32.067 138.735 32.067C138.981 32.067 139.182 31.8667 139.182 31.6199V28.4896C139.182 28.2426 138.981 28.0422 138.735 28.0422Z" fill="white"/>
<path d="M149.482 26.8077C150.502 26.8077 151.306 27.1412 151.895 27.8081C152.483 28.4717 152.777 29.3739 152.777 30.5148C152.777 31.6557 152.483 32.5596 151.895 33.2265C151.306 33.8934 150.502 34.2268 149.482 34.2268C148.459 34.2268 147.652 33.895 147.06 33.2314C146.471 32.5645 146.177 31.659 146.177 30.5148C146.177 29.3739 146.473 28.4717 147.065 27.8081C147.66 27.1412 148.465 26.8077 149.482 26.8077ZM149.482 27.8326C148.815 27.8326 148.284 28.0745 147.889 28.5583C147.496 29.0421 147.3 29.6943 147.3 30.5148C147.3 31.3353 147.495 31.9891 147.884 32.4762C148.273 32.9601 148.805 33.202 149.482 33.202C150.152 33.202 150.682 32.9601 151.071 32.4762C151.46 31.9891 151.654 31.3353 151.654 30.5148C151.654 29.691 151.46 29.0388 151.071 28.5583C150.682 28.0745 150.152 27.8326 149.482 27.8326ZM157.004 28.627C157.684 28.627 158.224 28.8754 158.622 29.3723C159.021 29.8659 159.221 30.5361 159.221 31.3827C159.221 32.2294 159.021 32.9012 158.622 33.3981C158.227 33.895 157.691 34.1434 157.014 34.1434C156.635 34.1434 156.301 34.065 156.014 33.9081C155.726 33.7479 155.512 33.5272 155.371 33.2461H155.288V35.8303H154.234V28.7152H155.249V29.5979H155.327C155.487 29.2938 155.716 29.0568 156.014 28.8868C156.311 28.7136 156.641 28.627 157.004 28.627ZM156.705 33.1971C157.153 33.1971 157.503 33.0369 157.754 32.7165C158.009 32.3929 158.137 31.9483 158.137 31.3827C158.137 30.8172 158.009 30.3742 157.754 30.0539C157.503 29.7335 157.155 29.5733 156.71 29.5733C156.265 29.5733 155.914 29.7368 155.656 30.0637C155.397 30.3873 155.268 30.8286 155.268 31.3876C155.268 31.9434 155.397 32.3847 155.656 32.7116C155.914 33.0352 156.264 33.1971 156.705 33.1971ZM161.633 34.0552H160.589V28.7152H161.633V32.388H161.717L164.178 28.7152H165.223V34.0552H164.178V30.3628H164.1L161.633 34.0552ZM170.361 29.6028H167.9V34.0552H166.846V28.7152H170.361V29.6028ZM172.656 34.0552H171.612V28.7152H172.656V32.388H172.74L175.201 28.7152H176.246V34.0552H175.201V30.3628H175.123L172.656 34.0552ZM181.385 34.0552V31.7407H178.923V34.0552H177.869V28.7152H178.923V30.8532H181.385V28.7152H182.434V34.0552H181.385ZM185.808 33.2559C186.203 33.2559 186.532 33.1448 186.793 32.9225C187.058 32.7002 187.19 32.4223 187.19 32.0889V31.6426L185.886 31.726C185.52 31.7489 185.25 31.8241 185.077 31.9516C184.904 32.079 184.817 32.2605 184.817 32.4958C184.817 32.7312 184.909 32.9176 185.092 33.0549C185.275 33.1889 185.513 33.2559 185.808 33.2559ZM185.538 34.1434C185.015 34.1434 184.587 33.998 184.253 33.707C183.923 33.4128 183.758 33.0254 183.758 32.5449C183.758 32.0676 183.93 31.6933 184.273 31.422C184.616 31.1474 185.106 30.9905 185.744 30.9512L187.19 30.8679V30.4069C187.19 30.1225 187.097 29.9051 186.911 29.7548C186.725 29.6011 186.453 29.5243 186.097 29.5243C185.803 29.5243 185.558 29.5766 185.361 29.6812C185.169 29.7826 185.043 29.928 184.984 30.1176H183.964C184.016 29.66 184.24 29.2955 184.636 29.0241C185.034 28.7495 185.538 28.6122 186.146 28.6122C186.813 28.6122 187.328 28.7708 187.691 29.0879C188.057 29.4017 188.24 29.8414 188.24 30.4069V34.0552H187.225V33.3049H187.141C186.981 33.573 186.761 33.7806 186.479 33.9277C186.202 34.0715 185.888 34.1434 185.538 34.1434ZM191.28 31.6132C191.254 32.0153 191.208 32.3618 191.143 32.6528C191.077 32.9404 190.981 33.1987 190.853 33.4275C190.729 33.6531 190.564 33.8231 190.358 33.9375C190.152 34.0519 189.905 34.1091 189.618 34.1091C189.477 34.1091 189.356 34.0895 189.255 34.0503V33.0647C189.343 33.0908 189.438 33.1039 189.539 33.1039C189.784 33.1039 189.964 32.9715 190.079 32.7067C190.196 32.4419 190.273 32.0594 190.309 31.5593L190.495 28.7152H194.173V34.0552H193.119V29.6028H191.427L191.28 31.6132Z" fill="white"/>
</g>
<g filter="url(#filter2_bd_2119_754)">
<rect x="222.645" y="17" width="89.1868" height="26.1104" rx="13.0552" fill="#1E1E20" fill-opacity="0.75" shape-rendering="crispEdges"/>
<rect x="222.145" y="16.5" width="90.1868" height="27.1104" rx="13.5552" stroke="url(#paint8_linear_2119_754)" stroke-opacity="0.04" shape-rendering="crispEdges"/>
<path d="M238.713 23.0249C238.466 23.0249 238.266 23.2456 238.266 23.5175V35.5875C238.266 35.8597 238.466 36.0801 238.713 36.0801C238.96 36.0801 239.16 35.8594 239.16 35.5875V23.5178C239.16 23.2456 238.96 23.0249 238.713 23.0249Z" fill="url(#paint9_linear_2119_754)"/>
<path d="M235.583 24.0293C235.336 24.0293 235.135 24.3667 235.135 24.7824V35.3272C235.135 35.7432 235.336 36.0802 235.583 36.0802C235.829 36.0802 236.03 35.7428 236.03 35.3272V24.7824C236.03 24.3667 235.83 24.0293 235.583 24.0293Z" fill="url(#paint10_linear_2119_754)"/>
<path d="M232.13 26.0378C231.883 26.0378 231.683 26.4378 231.683 26.9304V33.1793C231.683 33.6724 231.884 34.0718 232.13 34.0718C232.377 34.0718 232.577 33.6719 232.577 33.1793V26.9309C232.577 26.4378 232.377 26.0378 232.13 26.0378Z" fill="url(#paint11_linear_2119_754)"/>
<path d="M241.843 24.0293C241.596 24.0293 241.396 24.3667 241.396 24.7824V35.3272C241.396 35.7432 241.597 36.0802 241.843 36.0802C242.09 36.0802 242.291 35.7428 242.291 35.3272V24.7824C242.291 24.3667 242.09 24.0293 241.843 24.0293Z" fill="url(#paint12_linear_2119_754)"/>
<path d="M245.185 26.0378C244.939 26.0378 244.739 26.4378 244.739 26.9304V33.1793C244.739 33.6724 244.939 34.0718 245.185 34.0718C245.432 34.0718 245.632 33.6719 245.632 33.1793V26.9309C245.632 26.4378 245.432 26.0378 245.185 26.0378Z" fill="url(#paint13_linear_2119_754)"/>
<path d="M255.612 34.0552H252.704V26.9794H255.548C256.212 26.9794 256.732 27.1379 257.108 27.455C257.487 27.7688 257.676 28.1987 257.676 28.7446C257.676 29.114 257.557 29.4458 257.318 29.7401C257.08 30.031 256.786 30.2059 256.436 30.2647V30.3481C256.913 30.3971 257.297 30.5786 257.588 30.8924C257.882 31.2029 258.029 31.5887 258.029 32.0496C258.029 32.674 257.815 33.1644 257.387 33.5207C256.959 33.877 256.367 34.0552 255.612 34.0552ZM253.803 27.911V29.9754H255.107C255.591 29.9754 255.957 29.8888 256.205 29.7155C256.457 29.539 256.583 29.2824 256.583 28.9457C256.583 28.6188 256.469 28.3654 256.24 28.1856C256.014 28.0026 255.699 27.911 255.293 27.911H253.803ZM253.803 33.1235H255.391C255.885 33.1235 256.261 33.0254 256.519 32.8293C256.777 32.6331 256.907 32.3471 256.907 31.9712C256.907 31.6018 256.773 31.3223 256.504 31.1327C256.236 30.9398 255.844 30.8434 255.328 30.8434H253.803V33.1235ZM264.242 34.0552V28.7152H265.297V34.0552H264.242ZM261.442 31.2356H260.467V33.1676H261.442C261.763 33.1676 262.018 33.0794 262.207 32.9028C262.4 32.7263 262.497 32.4926 262.497 32.2016C262.497 31.9107 262.4 31.677 262.207 31.5004C262.014 31.3239 261.759 31.2356 261.442 31.2356ZM259.412 34.0552V28.7152H260.467V30.353H261.521C262.139 30.353 262.631 30.5197 262.997 30.8532C263.363 31.1866 263.546 31.6361 263.546 32.2016C263.546 32.7672 263.363 33.2183 262.997 33.555C262.631 33.8885 262.139 34.0552 261.521 34.0552H259.412ZM271.441 30.4609H270.416C270.35 30.1895 270.208 29.9705 269.989 29.8038C269.773 29.6371 269.496 29.5537 269.156 29.5537C268.714 29.5537 268.366 29.7139 268.111 30.0343C267.859 30.3546 267.734 30.7992 267.734 31.368C267.734 31.9434 267.859 32.3961 268.111 32.7263C268.366 33.0532 268.714 33.2167 269.156 33.2167C269.492 33.2167 269.769 33.1415 269.984 32.9911C270.203 32.8407 270.347 32.6233 270.416 32.3389H271.441C271.372 32.8881 271.137 33.3295 270.735 33.6629C270.332 33.9931 269.808 34.1582 269.161 34.1582C268.382 34.1582 267.77 33.9113 267.322 33.4177C266.877 32.9208 266.655 32.2376 266.655 31.368C266.655 30.5115 266.877 29.8381 267.322 29.3478C267.766 28.8574 268.378 28.6122 269.156 28.6122C269.806 28.6122 270.331 28.7822 270.73 29.1222C271.132 29.4622 271.369 29.9084 271.441 30.4609ZM275.001 34.1582C274.216 34.1582 273.6 33.9113 273.152 33.4177C272.704 32.9241 272.48 32.2458 272.48 31.3827C272.48 30.523 272.704 29.8463 273.152 29.3527C273.603 28.8591 274.219 28.6122 275.001 28.6122C275.779 28.6122 276.392 28.8591 276.839 29.3527C277.291 29.8463 277.516 30.523 277.516 31.3827C277.516 32.2458 277.292 32.9241 276.844 33.4177C276.397 33.9113 275.782 34.1582 275.001 34.1582ZM275.001 33.2216C275.455 33.2216 275.806 33.0614 276.055 32.741C276.307 32.4174 276.432 31.9646 276.432 31.3827C276.432 30.8041 276.307 30.3546 276.055 30.0343C275.806 29.7106 275.455 29.5488 275.001 29.5488C274.543 29.5488 274.19 29.709 273.941 30.0294C273.693 30.3497 273.569 30.8009 273.569 31.3827C273.569 31.9679 273.693 32.4207 273.941 32.741C274.19 33.0614 274.543 33.2216 275.001 33.2216ZM280.174 31.7211H279.934V34.0552H278.879V28.7152H279.934V30.8826H280.169L282.096 28.7152H283.337L281.037 31.1964L283.435 34.0552H282.121L280.174 31.7211ZM285.602 34.0552H284.558V28.7152H285.602V32.388H285.685L288.147 28.7152H289.191V34.0552H288.147V30.3628H288.069L285.602 34.0552ZM291.859 34.0552H290.815V28.7152H291.859V32.388H291.942L294.404 28.7152H295.448V34.0552H294.404V30.3628H294.326L291.859 34.0552ZM291.349 26.2978H292.227C292.227 26.5691 292.307 26.7996 292.467 26.9892C292.627 27.1788 292.836 27.2736 293.095 27.2736C293.36 27.2736 293.57 27.1788 293.727 26.9892C293.887 26.7996 293.969 26.5691 293.972 26.2978H294.845C294.845 26.7783 294.683 27.1755 294.36 27.4893C294.036 27.7999 293.614 27.9552 293.095 27.9552C292.575 27.9552 292.153 27.7999 291.83 27.4893C291.509 27.1755 291.349 26.7783 291.349 26.2978Z" fill="white"/>
</g>
<g filter="url(#filter3_bd_2119_754)">
<rect x="39.5352" y="58.1104" width="254.93" height="31.8047" rx="15.9023" fill="#1E1E20" fill-opacity="0.75" shape-rendering="crispEdges"/>
<rect x="39.0352" y="57.6104" width="255.93" height="32.8047" rx="16.4023" stroke="url(#paint14_linear_2119_754)" stroke-opacity="0.04" shape-rendering="crispEdges"/>
<path d="M67.4456 67.1274C67.1354 67.1287 66.8338 67.2292 66.5849 67.4143L62.3791 70.5701H60.2733C59.8168 70.5701 59.379 70.7515 59.0562 71.0743C58.7334 71.3971 58.552 71.8349 58.552 72.2915V75.7341C58.552 76.1907 58.7334 76.6285 59.0562 76.9513C59.379 77.2741 59.8168 77.4555 60.2733 77.4555H62.3791L66.5849 80.6113C66.8338 80.7964 67.1354 80.8969 67.4456 80.8982C67.826 80.8982 68.1909 80.747 68.4599 80.478C68.7289 80.209 68.88 79.8442 68.88 79.4637V68.5619C68.88 68.1815 68.7289 67.8166 68.4599 67.5476C68.1909 67.2786 67.826 67.1274 67.4456 67.1274Z" fill="url(#paint15_linear_2119_754)"/>
<path d="M72.7701 69.5491C72.7166 69.4956 72.6531 69.4532 72.5832 69.4242C72.5133 69.3953 72.4384 69.3804 72.3628 69.3804C72.2871 69.3804 72.2122 69.3953 72.1423 69.4242C72.0724 69.4532 72.0089 69.4956 71.9554 69.5491C71.9019 69.6026 71.8594 69.6661 71.8305 69.736C71.8015 69.8059 71.7866 69.8808 71.7866 69.9565C71.7866 70.0322 71.8015 70.1071 71.8305 70.177C71.8594 70.2469 71.9019 70.3104 71.9554 70.3639C72.9224 71.3321 73.4656 72.6447 73.4656 74.0131C73.4656 75.3816 72.9224 76.6941 71.9554 77.6624C71.9016 77.7157 71.8589 77.7792 71.8298 77.8491C71.8006 77.919 71.7856 77.994 71.7856 78.0697C71.7856 78.1455 71.8006 78.2205 71.8298 78.2904C71.8589 78.3603 71.9016 78.4238 71.9554 78.4771C72.0087 78.5309 72.0722 78.5736 72.1421 78.6027C72.212 78.6319 72.287 78.6469 72.3628 78.6469C72.4385 78.6469 72.5135 78.6319 72.5834 78.6027C72.6533 78.5736 72.7168 78.5309 72.7701 78.4771C73.3565 77.891 73.8217 77.1951 74.1391 76.4291C74.4565 75.6632 74.6198 74.8422 74.6198 74.0131C74.6198 73.184 74.4565 72.3631 74.1391 71.5971C73.8217 70.8312 73.3565 70.1352 72.7701 69.5491Z" fill="url(#paint16_linear_2119_754)"/>
<path d="M71.141 71.1722C71.0891 71.1125 71.0255 71.0642 70.954 71.0303C70.8826 70.9964 70.8049 70.9776 70.7259 70.9751C70.6469 70.9727 70.5682 70.9865 70.4948 71.0159C70.4214 71.0453 70.3549 71.0895 70.2993 71.1458C70.2438 71.2021 70.2006 71.2693 70.1722 71.3431C70.1439 71.4169 70.1312 71.4958 70.1348 71.5748C70.1383 71.6537 70.1582 71.7311 70.1932 71.8021C70.2281 71.873 70.2773 71.9359 70.3377 71.987C70.8738 72.5247 71.1748 73.2531 71.1748 74.0124C71.1748 74.7717 70.8738 75.5001 70.3377 76.0378C70.2571 76.1178 70.202 76.2198 70.1794 76.331C70.1568 76.4422 70.1677 76.5576 70.2107 76.6626C70.2537 76.7676 70.3269 76.8575 70.421 76.921C70.5151 76.9844 70.6258 77.0185 70.7393 77.019C70.8898 77.0184 71.0341 76.9586 71.141 76.8526C71.514 76.4796 71.8099 76.0369 72.0117 75.5495C72.2136 75.0622 72.3175 74.5399 72.3175 74.0124C72.3175 73.4849 72.2136 72.9626 72.0117 72.4753C71.8099 71.9879 71.514 71.5452 71.141 71.1722Z" fill="url(#paint17_linear_2119_754)"/>
<path d="M83.6371 74.0128C83.6371 73.4582 84.0867 73.0085 84.6413 73.0085H187.074V75.017H84.6413C84.0867 75.017 83.6371 74.5674 83.6371 74.0128Z" fill="url(#paint18_linear_2119_754)"/>
<path d="M187.074 73.0085H278.461C279.015 73.0085 279.465 73.4582 279.465 74.0128C279.465 74.5674 279.015 75.017 278.461 75.017H187.074V73.0085Z" fill="white"/>
<g filter="url(#filter4_d_2119_754)">
<circle cx="185.838" cy="73.0674" r="4.60546" fill="url(#paint19_linear_2119_754)"/>
</g>
<g clip-path="url(#clip0_2119_754)">
<path d="M197.107 84.5758L193.486 92.7157L185.791 73.2705L205.255 80.958L197.107 84.5758Z" fill="white"/>
<path d="M185.909 72.9729L205.374 80.661C205.493 80.7087 205.572 80.8233 205.575 80.9518C205.577 81.0803 205.502 81.1978 205.385 81.2499L197.351 84.8179L193.779 92.844C193.728 92.9594 193.614 93.0337 193.487 93.0339H193.48C193.351 93.0312 193.237 92.9514 193.189 92.8315L185.494 73.3876C185.446 73.2688 185.474 73.1331 185.565 73.0427C185.655 72.9521 185.791 72.9243 185.91 72.9719L185.909 72.9729ZM193.504 91.8894L196.816 84.4457C196.848 84.3734 196.906 84.3158 196.978 84.2836L204.429 80.975L186.361 73.8388L193.504 91.8894Z" fill="#171717"/>
</g>
</g>
<defs>
<filter id="filter0_bd_2119_754" x="-28.8311" y="-34" width="184.187" height="128.11" filterUnits="userSpaceOnUse" color-interpolation-filters="sRGB">
<feFlood flood-opacity="0" result="BackgroundImageFix"/>
<feGaussianBlur in="BackgroundImageFix" stdDeviation="25"/>
<feComposite in2="SourceAlpha" operator="in" result="effect1_backgroundBlur_2119_754"/>
<feColorMatrix in="SourceAlpha" type="matrix" values="0 0 0 0 0 0 0 0 0 0 0 0 0 0 0 0 0 0 127 0" result="hardAlpha"/>
<feOffset/>
<feGaussianBlur stdDeviation="8"/>
<feComposite in2="hardAlpha" operator="out"/>
<feColorMatrix type="matrix" values="0 0 0 0 0 0 0 0 0 0 0 0 0 0 0 0 0 0 0.1 0"/>
<feBlend mode="normal" in2="effect1_backgroundBlur_2119_754" result="effect2_dropShadow_2119_754"/>
<feBlend mode="normal" in="SourceGraphic" in2="effect2_dropShadow_2119_754" result="shape"/>
</filter>
<filter id="filter1_bd_2119_754" x="65.4067" y="-34" width="196.187" height="128.11" filterUnits="userSpaceOnUse" color-interpolation-filters="sRGB">
<feFlood flood-opacity="0" result="BackgroundImageFix"/>
<feGaussianBlur in="BackgroundImageFix" stdDeviation="25"/>
<feComposite in2="SourceAlpha" operator="in" result="effect1_backgroundBlur_2119_754"/>
<feColorMatrix in="SourceAlpha" type="matrix" values="0 0 0 0 0 0 0 0 0 0 0 0 0 0 0 0 0 0 127 0" result="hardAlpha"/>
<feOffset/>
<feGaussianBlur stdDeviation="8"/>
<feComposite in2="hardAlpha" operator="out"/>
<feColorMatrix type="matrix" values="0 0 0 0 0 0 0 0 0 0 0 0 0 0 0 0 0 0 0.1 0"/>
<feBlend mode="normal" in2="effect1_backgroundBlur_2119_754" result="effect2_dropShadow_2119_754"/>
<feBlend mode="normal" in="SourceGraphic" in2="effect2_dropShadow_2119_754" result="shape"/>
</filter>
<filter id="filter2_bd_2119_754" x="171.645" y="-34" width="191.187" height="128.11" filterUnits="userSpaceOnUse" color-interpolation-filters="sRGB">
<feFlood flood-opacity="0" result="BackgroundImageFix"/>
<feGaussianBlur in="BackgroundImageFix" stdDeviation="25"/>
<feComposite in2="SourceAlpha" operator="in" result="effect1_backgroundBlur_2119_754"/>
<feColorMatrix in="SourceAlpha" type="matrix" values="0 0 0 0 0 0 0 0 0 0 0 0 0 0 0 0 0 0 127 0" result="hardAlpha"/>
<feOffset/>
<feGaussianBlur stdDeviation="8"/>
<feComposite in2="hardAlpha" operator="out"/>
<feColorMatrix type="matrix" values="0 0 0 0 0 0 0 0 0 0 0 0 0 0 0 0 0 0 0.1 0"/>
<feBlend mode="normal" in2="effect1_backgroundBlur_2119_754" result="effect2_dropShadow_2119_754"/>
<feBlend mode="normal" in="SourceGraphic" in2="effect2_dropShadow_2119_754" result="shape"/>
</filter>
<filter id="filter3_bd_2119_754" x="-11.4648" y="7.11035" width="356.93" height="135.924" filterUnits="userSpaceOnUse" color-interpolation-filters="sRGB">
<feFlood flood-opacity="0" result="BackgroundImageFix"/>
<feGaussianBlur in="BackgroundImageFix" stdDeviation="25"/>
<feComposite in2="SourceAlpha" operator="in" result="effect1_backgroundBlur_2119_754"/>
<feColorMatrix in="SourceAlpha" type="matrix" values="0 0 0 0 0 0 0 0 0 0 0 0 0 0 0 0 0 0 127 0" result="hardAlpha"/>
<feOffset/>
<feGaussianBlur stdDeviation="8"/>
<feComposite in2="hardAlpha" operator="out"/>
<feColorMatrix type="matrix" values="0 0 0 0 0 0 0 0 0 0 0 0 0 0 0 0 0 0 0.1 0"/>
<feBlend mode="normal" in2="effect1_backgroundBlur_2119_754" result="effect2_dropShadow_2119_754"/>
<feBlend mode="normal" in="SourceGraphic" in2="effect2_dropShadow_2119_754" result="shape"/>
</filter>
<filter id="filter4_d_2119_754" x="173.557" y="62.3213" width="24.5625" height="24.5625" filterUnits="userSpaceOnUse" color-interpolation-filters="sRGB">
<feFlood flood-opacity="0" result="BackgroundImageFix"/>
<feColorMatrix in="SourceAlpha" type="matrix" values="0 0 0 0 0 0 0 0 0 0 0 0 0 0 0 0 0 0 127 0" result="hardAlpha"/>
<feOffset dy="1.53515"/>
<feGaussianBlur stdDeviation="3.83788"/>
<feComposite in2="hardAlpha" operator="out"/>
<feColorMatrix type="matrix" values="0 0 0 0 0 0 0 0 0 0.34 0 0 0 0 1 0 0 0 0.4 0"/>
<feBlend mode="normal" in2="BackgroundImageFix" result="effect1_dropShadow_2119_754"/>
<feBlend mode="normal" in="SourceGraphic" in2="effect1_dropShadow_2119_754" result="shape"/>
</filter>
<linearGradient id="paint0_linear_2119_754" x1="22.1689" y1="17" x2="81.4727" y2="69.1383" gradientUnits="userSpaceOnUse">
<stop stop-color="white"/>
<stop offset="1" stop-color="white" stop-opacity="0"/>
</linearGradient>
<linearGradient id="paint1_linear_2119_754" x1="37.7893" y1="32.3364" x2="38.7197" y2="32.329" gradientUnits="userSpaceOnUse">
<stop stop-color="#6356FE"/>
<stop offset="0.303754" stop-color="#764AEF"/>
<stop offset="0.618202" stop-color="#8A3EDF"/>
<stop offset="1" stop-color="#A330CB"/>
</linearGradient>
<linearGradient id="paint2_linear_2119_754" x1="34.6589" y1="32.7642" x2="35.5894" y2="32.7579" gradientUnits="userSpaceOnUse">
<stop stop-color="#6356FE"/>
<stop offset="0.303754" stop-color="#764AEF"/>
<stop offset="0.618202" stop-color="#8A3EDF"/>
<stop offset="1" stop-color="#A330CB"/>
</linearGradient>
<linearGradient id="paint3_linear_2119_754" x1="31.5286" y1="31.5787" x2="32.4589" y2="31.5676" gradientUnits="userSpaceOnUse">
<stop stop-color="#6356FE"/>
<stop offset="0.303754" stop-color="#764AEF"/>
<stop offset="0.618202" stop-color="#8A3EDF"/>
<stop offset="1" stop-color="#A330CB"/>
</linearGradient>
<linearGradient id="paint4_linear_2119_754" x1="40.9198" y1="32.7642" x2="41.8502" y2="32.7579" gradientUnits="userSpaceOnUse">
<stop stop-color="#6356FE"/>
<stop offset="0.303754" stop-color="#764AEF"/>
<stop offset="0.618202" stop-color="#8A3EDF"/>
<stop offset="1" stop-color="#A330CB"/>
</linearGradient>
<linearGradient id="paint5_linear_2119_754" x1="44.0502" y1="31.5787" x2="44.9805" y2="31.5676" gradientUnits="userSpaceOnUse">
<stop stop-color="#6356FE"/>
<stop offset="0.303754" stop-color="#764AEF"/>
<stop offset="0.618202" stop-color="#8A3EDF"/>
<stop offset="1" stop-color="#A330CB"/>
</linearGradient>
<linearGradient id="paint6_linear_2119_754" x1="116.407" y1="39.9424" x2="210.895" y2="21.7294" gradientUnits="userSpaceOnUse">
<stop stop-color="#6356FE"/>
<stop offset="0.303754" stop-color="#764AEF"/>
<stop offset="0.618202" stop-color="#8A3EDF"/>
<stop offset="1" stop-color="#A330CB"/>
</linearGradient>
<linearGradient id="paint7_linear_2119_754" x1="116.407" y1="17" x2="176.201" y2="77.2454" gradientUnits="userSpaceOnUse">
<stop stop-color="white"/>
<stop offset="1" stop-color="white" stop-opacity="0"/>
</linearGradient>
<linearGradient id="paint8_linear_2119_754" x1="222.645" y1="17" x2="282.375" y2="73.9857" gradientUnits="userSpaceOnUse">
<stop stop-color="white"/>
<stop offset="1" stop-color="white" stop-opacity="0"/>
</linearGradient>
<linearGradient id="paint9_linear_2119_754" x1="238.266" y1="34.4961" x2="239.196" y2="34.4927" gradientUnits="userSpaceOnUse">
<stop stop-color="#6356FE"/>
<stop offset="0.303754" stop-color="#764AEF"/>
<stop offset="0.618202" stop-color="#8A3EDF"/>
<stop offset="1" stop-color="#A330CB"/>
</linearGradient>
<linearGradient id="paint10_linear_2119_754" x1="235.135" y1="34.6181" x2="236.066" y2="34.6144" gradientUnits="userSpaceOnUse">
<stop stop-color="#6356FE"/>
<stop offset="0.303754" stop-color="#764AEF"/>
<stop offset="0.618202" stop-color="#8A3EDF"/>
<stop offset="1" stop-color="#A330CB"/>
</linearGradient>
<linearGradient id="paint11_linear_2119_754" x1="231.683" y1="33.097" x2="232.613" y2="33.0915" gradientUnits="userSpaceOnUse">
<stop stop-color="#6356FE"/>
<stop offset="0.303754" stop-color="#764AEF"/>
<stop offset="0.618202" stop-color="#8A3EDF"/>
<stop offset="1" stop-color="#A330CB"/>
</linearGradient>
<linearGradient id="paint12_linear_2119_754" x1="241.396" y1="34.6181" x2="242.327" y2="34.6144" gradientUnits="userSpaceOnUse">
<stop stop-color="#6356FE"/>
<stop offset="0.303754" stop-color="#764AEF"/>
<stop offset="0.618202" stop-color="#8A3EDF"/>
<stop offset="1" stop-color="#A330CB"/>
</linearGradient>
<linearGradient id="paint13_linear_2119_754" x1="244.739" y1="33.097" x2="245.668" y2="33.0915" gradientUnits="userSpaceOnUse">
<stop stop-color="#6356FE"/>
<stop offset="0.303754" stop-color="#764AEF"/>
<stop offset="0.618202" stop-color="#8A3EDF"/>
<stop offset="1" stop-color="#A330CB"/>
</linearGradient>
<linearGradient id="paint14_linear_2119_754" x1="39.5352" y1="58.1104" x2="93.7803" y2="179.554" gradientUnits="userSpaceOnUse">
<stop stop-color="white"/>
<stop offset="1" stop-color="white" stop-opacity="0"/>
</linearGradient>
<linearGradient id="paint15_linear_2119_754" x1="58.552" y1="79.2274" x2="69.2808" y2="78.7974" gradientUnits="userSpaceOnUse">
<stop stop-color="#6356FE"/>
<stop offset="0.303754" stop-color="#764AEF"/>
<stop offset="0.618202" stop-color="#8A3EDF"/>
<stop offset="1" stop-color="#A330CB"/>
</linearGradient>
<linearGradient id="paint16_linear_2119_754" x1="71.7856" y1="77.5225" x2="74.7337" y2="77.4744" gradientUnits="userSpaceOnUse">
<stop stop-color="#6356FE"/>
<stop offset="0.303754" stop-color="#764AEF"/>
<stop offset="0.618202" stop-color="#8A3EDF"/>
<stop offset="1" stop-color="#A330CB"/>
</linearGradient>
<linearGradient id="paint17_linear_2119_754" x1="70.1342" y1="76.2857" x2="72.405" y2="76.2418" gradientUnits="userSpaceOnUse">
<stop stop-color="#6356FE"/>
<stop offset="0.303754" stop-color="#764AEF"/>
<stop offset="0.618202" stop-color="#8A3EDF"/>
<stop offset="1" stop-color="#A330CB"/>
</linearGradient>
<linearGradient id="paint18_linear_2119_754" x1="83.6371" y1="74.7733" x2="96.1908" y2="40.2267" gradientUnits="userSpaceOnUse">
<stop stop-color="#6356FE"/>
<stop offset="0.303754" stop-color="#764AEF"/>
<stop offset="0.618202" stop-color="#8A3EDF"/>
<stop offset="1" stop-color="#A330CB"/>
</linearGradient>
<linearGradient id="paint19_linear_2119_754" x1="181.233" y1="76.5553" x2="190.789" y2="76.0446" gradientUnits="userSpaceOnUse">
<stop stop-color="#6356FE"/>
<stop offset="0.303754" stop-color="#764AEF"/>
<stop offset="0.618202" stop-color="#8A3EDF"/>
<stop offset="1" stop-color="#A330CB"/>
</linearGradient>
<clipPath id="clip0_2119_754">
<rect width="20.0849" height="20.0849" fill="white" transform="matrix(-1 0 0 1 205.585 72.949)"/>
</clipPath>
</defs>
</svg>
