<svg width="234" height="196" viewBox="0 0 234 196" fill="none" xmlns="http://www.w3.org/2000/svg">
<g filter="url(#filter0_b_382_1106)">
<rect x="1" y="1" width="232" height="194" rx="20" fill="#1B1B1D"/>
<rect x="0.5" y="0.5" width="233" height="195" rx="20.5" stroke="url(#paint0_linear_382_1106)" stroke-opacity="0.04"/>
<g clip-path="url(#clip0_382_1106)">
<path opacity="0.8" d="M77.2028 25.625C77.2028 25.9054 77.0618 26.5935 76.8822 27.1542C76.4974 28.352 75.5226 29.7538 74.0733 31.181C72.9575 32.2641 71.6236 33.7806 71.072 34.5579C70.4949 35.3989 70.2384 36.4184 70.2768 37.7946C70.3666 40.8912 70.3794 40.7893 69.8664 41.8214C69.2123 43.1722 68.9686 43.4526 67.4551 44.6377C64.2743 47.1226 60.3752 50.8818 58.1563 53.6088C56.6685 55.431 56.7583 55.3673 56.8609 54.6919C56.9892 53.8509 57.4509 52.9716 58.3359 51.8885C59.875 50.0152 60.5163 48.0783 60.2726 46.0521C59.9648 43.5672 59.1696 40.8402 57.515 36.584C57.002 35.2715 56.707 34.8 57.0148 35.7812C57.1174 36.1253 57.2457 36.8899 57.2842 37.4888C57.3483 38.4063 57.297 38.7631 57.0148 39.8463C56.8224 40.5471 56.4505 41.694 56.1811 42.3949C55.5142 44.0897 54.9242 45.9247 54.7831 46.7912C54.5651 47.9763 54.937 49.5565 55.7451 50.8563C56.5531 52.1943 56.7327 53.3921 56.3607 55.1379C56.194 55.9153 56.0016 56.2593 54.7703 58.0688C52.4488 61.4712 50.4864 65.052 48.9858 68.6838C48.3188 70.264 48.3573 70.2512 47.7545 69.0916L47.3825 68.3907V65.651C47.3825 62.9749 47.3697 62.8857 47.0234 61.8918C46.8182 61.3311 46.5489 60.6939 46.4078 60.4645C46.0871 59.9548 44.548 58.5276 43.5348 57.814C42.7011 57.2151 37.0192 54.3096 36.6985 54.3096C36.5831 54.3096 36.814 54.5263 37.1859 54.7811C38.6994 55.8516 39.3407 57.1259 40.2 60.8086C40.4309 61.828 40.8413 63.3062 41.0978 64.1091C41.5211 65.3834 41.6365 65.6255 42.1752 66.1607C42.7652 66.7469 43.9965 67.435 44.4711 67.435C45.138 67.435 46.023 67.8428 46.5232 68.378C47.126 69.0406 47.3312 69.3847 47.6904 70.4678L47.9597 71.2834L47.5621 72.443C45.5484 78.5087 44.625 84.1029 44.5737 90.3598C44.5737 91.9017 44.5224 93.125 44.4839 93.0995C44.2402 92.9593 43.8041 91.685 43.4578 90.0794C43.2398 89.0855 42.9191 87.8621 42.7396 87.3779C42.342 86.2947 41.3928 84.6509 40.79 84.0392C40.277 83.5167 38.3531 82.2297 37.3142 81.7072C36.0059 81.0701 29.6186 78.9292 29.6186 79.1459C29.6186 79.1841 29.9649 79.3752 30.3754 79.5664C32.0171 80.331 33.2099 81.8984 35.044 85.7085C36.3266 88.3591 37.4296 90.2068 38.0324 90.7421C38.9174 91.5194 39.8922 91.9144 41.1491 92.0291C42.4959 92.131 43.0859 92.4114 43.9324 93.3416L44.5737 94.0298L44.7276 95.9795C45.2663 102.427 46.7028 108.34 49.191 114.291C49.5886 115.26 50.0247 116.266 50.1658 116.521C50.294 116.789 50.3453 117.006 50.2812 117.006C50.2043 117.006 49.781 116.649 49.3321 116.203C48.7421 115.642 48.2034 114.903 47.4467 113.654C46.8695 112.686 46.0615 111.462 45.6382 110.94C44.7661 109.857 42.9833 108.378 41.8674 107.83C41.1235 107.461 38.0453 106.582 36.5703 106.301C35.4031 106.085 28.8234 105.664 26.8611 105.677L25.0654 105.69L26.4122 105.97C27.1561 106.123 28.195 106.429 28.7208 106.658C29.9778 107.193 32.0171 108.786 34.4668 111.156C37.6605 114.253 39.5716 115.744 40.8413 116.152C42.5087 116.674 43.6502 116.738 45.3817 116.419C46.7413 116.164 47.5749 116.305 49.0499 117.006C50.5377 117.719 50.9097 118.089 51.7562 119.643C54.424 124.639 57.7202 129.086 61.8502 133.278L63.5047 134.96L62.7095 134.769C61.0165 134.374 60.2598 133.941 58.2333 132.182C55.604 129.901 54.4112 129.162 52.1538 128.398C50.9738 128.003 50.4864 127.914 49.4347 127.863C48.1136 127.812 45.1637 128.143 43.2141 128.551C41.0465 129.022 29.8752 133.113 29.8752 133.444C29.8752 133.495 30.2086 133.444 30.6191 133.317C31.799 132.947 33.3895 132.769 34.6721 132.845C36.2496 132.947 39.315 133.954 42.3035 135.356C44.5352 136.4 48.0238 137.751 49.3834 138.095C50.7814 138.465 52.8464 138.274 54.5266 137.649C54.9242 137.509 55.8477 136.999 56.5916 136.515C57.3483 136.031 58.2205 135.572 58.5411 135.496C60.1059 135.101 61.8245 135.215 63.7484 135.814C64.6206 136.082 64.9156 136.273 66.4034 137.496C69.9305 140.402 73.6244 142.823 77.4465 144.773C79.2806 145.703 82.8591 147.334 83.0515 147.334C83.0771 147.334 83.1028 147.003 83.1028 146.582C83.1028 145.856 83.0899 145.83 82.6923 145.665C79.2806 144.314 74.7659 141.854 71.3414 139.484C70.4436 138.86 68.0451 137.063 67.5962 136.681C67.4423 136.541 67.2114 134.833 67.1986 133.763C67.1986 131.762 67.4551 131.048 68.789 129.315C70.1742 127.519 70.8797 125.378 70.7514 123.339C70.6744 121.873 69.6997 118.662 68.2888 115.183C67.3653 112.889 66.5701 110.29 66.2751 108.582C66.0315 107.155 66.4034 104.683 67.1345 102.963C67.1858 102.835 67.173 102.733 67.1088 102.733C66.7625 102.733 61.8374 113.973 61.3243 115.922C60.8626 117.655 60.2726 121.071 60.2726 121.975C60.2726 123.033 60.8498 125.39 61.4013 126.601C62.0041 127.914 62.5813 128.793 64.1332 130.793C64.9156 131.787 65.6595 132.807 65.7878 133.062C66.0956 133.673 66.583 135.292 66.5317 135.547C66.4804 135.827 63.7228 133.291 61.7219 131.125C58.2846 127.391 55.2961 123.262 53.2568 119.427L52.6155 118.216L52.7181 117.082C52.8849 115.298 53.4364 113.858 54.3342 112.788C54.5266 112.571 55.0909 112.125 55.5911 111.819C56.6942 111.118 57.3098 110.545 58.0281 109.551C59.3876 107.652 59.5031 107.079 59.5672 101.459C59.6313 96.9862 59.7852 94.7689 60.1059 93.8131C60.465 92.7427 61.1576 91.4557 61.7989 90.6529C62.158 90.2196 62.4017 89.8628 62.3504 89.8628C62.0939 89.8628 55.6168 96.6039 54.3342 98.1967C53.6544 99.076 51.6151 102.491 51.3073 103.294C51.0508 103.982 50.7814 105.804 50.7814 106.888C50.7814 107.932 51.1149 109.564 51.7434 111.564C52.2564 113.234 52.3205 113.539 52.3077 114.61C52.3077 115.26 52.2308 116.075 52.141 116.432L51.9871 117.069L51.6921 116.432C49.9221 112.635 48.7934 109.538 47.7802 105.664C46.7797 101.79 46.0358 96.5529 46.0358 93.1887C46.0358 91.9272 46.0615 91.8252 46.4206 91.2645C46.9208 90.4999 48.011 89.455 48.7036 89.1109C48.9858 88.9708 49.8067 88.7541 50.5121 88.6522C52.7951 88.3081 54.424 87.4289 55.3475 86.0144C56.0144 85.0204 57.1559 82.7649 57.9639 80.8534C59.3876 77.502 60.7215 75.8454 62.7737 74.826C63.338 74.5456 63.71 74.3162 63.5945 74.3162C63.1456 74.3162 56.8224 76.5973 54.4368 77.6294C53.616 77.9735 50.7558 79.7703 50.0632 80.3565C49.7682 80.6113 49.2551 81.2485 48.9088 81.7837C48.0367 83.1854 47.6262 84.4852 47.3825 86.6133C47.2799 87.5945 47.1517 88.563 47.1132 88.7796C47.0106 89.2639 46.536 90.2068 46.1769 90.6274L45.9076 90.9459L45.9717 90.2451C45.9973 89.8628 46.0615 88.7286 46.1 87.7474C46.2923 82.7776 47.5108 76.5973 49.2936 71.5892C49.6143 70.7227 49.9477 69.8434 50.0632 69.6395C50.371 69.0279 51.8588 67.7408 52.731 67.3203C53.6416 66.8743 54.1033 66.8361 56.1042 66.989C57.4509 67.0909 58.6565 66.8998 59.5672 66.441C60.17 66.1479 62.1067 64.211 63.5432 62.4652C64.2743 61.5859 65.3517 60.4008 65.9545 59.8146C67.173 58.6423 68.1349 58.1198 69.6868 57.7885C70.1871 57.6866 70.6231 57.5719 70.6616 57.5336C70.8925 57.2915 61.8117 58.1071 60.5804 58.4511C59.2081 58.8334 57.3996 59.4324 56.9122 59.6745C56.194 60.044 54.8344 61.3693 54.2572 62.2741C53.9751 62.7201 53.462 63.765 53.1414 64.5933C52.8079 65.4216 52.3718 66.3136 52.1794 66.5812C51.8331 67.0654 50.7814 68.0467 50.7814 67.881C50.7814 67.8428 51.0892 67.1164 51.474 66.2881C52.7438 63.4846 55.0909 59.4961 57.0405 56.7945C58.0409 55.431 60.1443 52.806 60.4778 52.5129C60.8883 52.1561 61.9528 51.8757 63.1584 51.7993C64.223 51.7355 64.4026 51.761 65.5056 52.1306C66.8908 52.6021 68.4427 52.806 69.5714 52.6403C70.559 52.5001 72.3546 51.761 74.83 50.4867C75.8946 49.9388 77.3311 49.2761 78.0365 49.0085C79.2806 48.537 79.3576 48.5243 81.0763 48.5243C82.0382 48.5116 82.8078 48.4861 82.7821 48.4606C82.6923 48.3841 80.2554 47.9381 77.2798 47.4666C74.5222 47.0206 74.1246 46.9824 71.5594 46.9951C68.866 46.9951 68.7762 46.9951 67.9297 47.3392C66.3136 47.9763 65.5056 48.4861 64.1717 49.7349C62.9019 50.9455 62.6198 51.1494 61.645 51.5571L61.1448 51.761L61.7861 51.0219C63.9921 48.4861 68.5197 44.6249 72.0725 42.2165C73.8296 41.0314 74.3555 40.8657 76.1768 40.8785C77.6517 40.8912 78.2033 41.0441 79.3063 41.7068C80.8197 42.637 82.8334 43.1085 84.2314 42.8536C85.4499 42.637 87.874 42.0126 88.9899 41.643C89.5157 41.4646 90.6829 41.1588 91.6064 40.9804C92.9659 40.7128 93.4533 40.6618 94.2357 40.7383C95.1207 40.8147 96.1083 41.0186 96.7624 41.2607C96.9419 41.3245 96.9804 41.3117 96.8906 41.2225C96.7111 41.0441 93.5559 39.859 90.5418 38.8396C87.8227 37.9348 85.1036 37.3486 83.5517 37.3359C82.4486 37.3359 81.0121 37.629 80.0758 38.0495C79.6911 38.2279 78.7548 38.7631 77.998 39.2601C77.2413 39.7443 76.5102 40.1776 76.3692 40.2158C75.792 40.3815 74.907 40.5089 74.9711 40.407C75.1635 40.0884 79.845 37.6927 81.6278 37.0046L82.7821 36.5586L84.7958 36.584C86.9121 36.6095 87.3225 36.5458 88.7975 35.9979C89.5927 35.7048 89.862 35.5009 91.2857 34.1246C92.8889 32.57 94.3511 30.7222 96.6726 27.2561C97.5832 25.9181 97.8013 25.3702 96.9932 26.4533C96.7752 26.7591 96.198 27.2944 95.7235 27.6512C95.0309 28.1609 94.5563 28.3775 93.2481 28.798C92.3631 29.0911 91.0805 29.4479 90.4135 29.6008C88.836 29.9704 87.1814 30.5183 86.5016 30.9134C85.8603 31.2957 85.078 32.1877 84.0904 33.6659C83.0258 35.2843 82.128 35.9342 78.5367 37.7182C75.7663 39.0944 73.5603 40.356 71.4696 41.7705C70.5975 42.3439 69.8921 42.7899 69.8921 42.7517C69.8921 42.7135 70.0844 42.4331 70.3281 42.14C70.636 41.7705 71.1618 41.4009 72.0725 40.9294C73.7142 40.0756 74.3427 39.5914 75.0866 38.6357C75.8561 37.6417 76.087 37.0938 76.5487 35.2078C76.9463 33.6022 77.1387 31.8819 77.267 28.8235C77.3054 27.8805 77.3696 26.6572 77.4081 26.1093C77.4594 25.4594 77.4337 25.128 77.3439 25.128C77.267 25.128 77.2028 25.3574 77.2028 25.625Z" fill="#C1C1C1"/>
<path opacity="0.8" d="M155.145 27.3581C155.389 34.061 155.94 37.0301 157.249 38.7886C158.044 39.8718 158.903 40.5344 160.519 41.3373C161.379 41.7705 161.981 42.1656 162.353 42.5606C162.648 42.8792 162.866 43.1595 162.841 43.185C162.815 43.2105 162.276 42.8919 161.661 42.4841C159.66 41.1589 157.005 39.6679 154.17 38.2917C150.028 36.2783 149.181 35.6793 148.078 33.9845C147.039 32.3916 146.334 31.6908 145.269 31.1938C144.359 30.7733 142.229 30.1234 140.767 29.843C139.69 29.6264 137.676 28.9765 136.932 28.6069C136.573 28.4285 135.855 27.8678 135.329 27.3454C134.79 26.8229 134.342 26.4024 134.316 26.4024C134.226 26.4024 135.996 28.8745 137.638 31.0664C139.626 33.7297 141.537 35.6029 142.948 36.2783C144.423 36.9919 145.346 37.1448 147.475 37.0556C149.207 36.9791 149.361 36.9919 150.271 37.2977C151.554 37.7182 153.927 38.8141 155.863 39.8591C157.71 40.853 157.903 40.9932 157.185 40.8785C156.107 40.6874 155.722 40.5217 154.44 39.7061C152.695 38.5975 151.977 38.2789 150.477 37.9731C149.54 37.7819 149.002 37.7437 148.283 37.8074C146.513 37.9604 144.038 38.4956 141.819 39.2219C138.638 40.2541 134.932 41.5921 134.932 41.7196C134.932 41.7705 135.085 41.7578 135.291 41.6813C135.906 41.4392 137.497 41.1843 138.33 41.1843C139.369 41.1843 141.357 41.5794 143.461 42.2038C148.694 43.7457 149.989 43.7457 153.106 42.191C154.619 41.4265 154.696 41.401 155.863 41.3373C156.543 41.3118 157.48 41.35 158.005 41.4392C158.878 41.5794 159.096 41.6941 160.827 42.8409C162.982 44.2682 165.201 45.9502 167.086 47.5814C168.959 49.1997 171.922 52.0669 171.768 52.1179C171.408 52.2326 170.139 51.4552 169.061 50.4485C167.599 49.085 166.714 48.5116 165.265 47.9382L164.111 47.4922H161.032C158.198 47.4922 157.749 47.5304 155.325 47.8999C151.208 48.5498 149.425 48.8811 149.425 48.9958C149.425 49.0596 149.54 49.0723 149.681 49.0213C150.079 48.8939 152.362 48.9321 153.093 49.0723C154.017 49.2507 155.966 50.0535 158.211 51.1622C159.275 51.6846 160.686 52.3345 161.353 52.6021C162.559 53.0991 162.597 53.0991 164.239 53.0864C165.765 53.0864 166.022 53.0481 167.189 52.6658C168.664 52.1943 170.01 52.1179 171.267 52.4492C172.358 52.7423 172.512 52.857 173.602 54.1185C175.538 56.3486 177.616 59.2413 179.322 62.0447C180.335 63.7013 182.708 68.3016 182.606 68.4035C182.567 68.4417 182.169 68.1104 181.721 67.6644C181.028 66.989 180.823 66.6832 180.464 65.7785C179.438 63.1916 178.732 62.083 177.347 60.9361C175.769 59.6108 172.986 58.808 168.523 58.3875C165.355 58.0944 161.43 57.9287 162.61 58.1326C163.546 58.311 164.777 58.7315 165.457 59.1138C166.227 59.5598 167.907 61.1909 169.369 62.9113C170.921 64.7463 172.807 66.543 173.55 66.8998C173.884 67.0655 174.628 67.2821 175.218 67.3968C176.154 67.5625 176.488 67.5752 177.706 67.435C178.95 67.2949 179.207 67.2949 179.822 67.4733C180.72 67.7281 181.579 68.2761 182.529 69.1808C183.183 69.8053 183.337 70.0474 183.786 71.1815C185.209 74.8388 186.389 79.3625 186.941 83.2492C187.261 85.5047 187.518 88.5121 187.518 89.9903V91.3283L187.261 91.0097C186.607 90.1941 186.364 89.3913 186.107 87.3397C185.979 86.2438 185.774 85.0205 185.645 84.6382C185.286 83.4276 184.452 81.9749 183.619 81.0956C183.208 80.6623 180.566 78.9675 179.309 78.3304C178.54 77.9481 173.243 75.9602 171.485 75.4122C170.883 75.2211 170.152 74.9789 169.857 74.8897C168.984 74.6094 169.215 74.8515 170.331 75.374C172.358 76.3297 173.73 78.0628 175.372 81.771C176.488 84.2814 177.744 86.4987 178.45 87.2123C178.835 87.5946 179.438 88.0023 180.117 88.3209C181.143 88.8052 181.592 88.9326 183.503 89.2257C184.927 89.4551 186.248 90.4108 187.197 91.889C187.479 92.335 187.518 92.5516 187.518 93.4564C187.518 95.5717 187.018 99.9171 186.479 102.657C185.825 105.97 184.645 109.908 183.439 112.864C182.644 114.788 181.451 117.388 181.349 117.388C181.195 117.388 180.977 115.935 180.977 114.954C180.977 114.138 181.079 113.654 181.554 112.15C182.311 109.767 182.516 108.723 182.516 107.295C182.503 104.543 182.272 103.855 180.387 100.847C179.566 99.5221 178.835 98.5663 177.77 97.4067C175.846 95.2914 170.729 90.1814 170.639 90.2706C170.6 90.3216 170.857 90.7039 171.216 91.1371C171.909 92.0037 172.627 93.2652 172.948 94.2082C173.307 95.3169 173.576 98.4007 173.473 100.567C173.384 102.81 173.576 106.48 173.871 107.639C174.281 109.271 175.551 110.889 177.385 112.112C178.104 112.584 178.848 113.17 179.053 113.412C179.976 114.521 180.566 116.254 180.605 117.961C180.63 118.904 180.63 118.904 179.822 120.281C177.206 124.753 174.166 128.704 170.626 132.259C168.766 134.119 166.355 136.299 166.265 136.197C166.163 136.107 166.727 134.234 167.022 133.661C167.163 133.368 167.984 132.246 168.843 131.189C170.447 129.175 171.421 127.659 171.883 126.435C172.396 125.097 172.768 123.377 172.768 122.37C172.768 121.198 171.909 116.853 171.408 115.476C170.844 113.909 167.997 107.525 166.907 105.346C165.868 103.294 165.342 102.58 165.932 104.008C166.74 106.008 166.83 108.238 166.214 110.66C165.727 112.622 165.483 113.31 164.47 115.718C163.084 119.006 161.866 122.969 161.866 124.193C161.866 125.085 162.315 126.805 162.841 127.939C163.072 128.462 163.623 129.315 164.059 129.851C165.098 131.125 165.444 131.902 165.611 133.304C165.739 134.234 165.727 134.642 165.56 135.661C165.432 136.464 165.265 136.987 165.124 137.165C164.521 137.815 160.532 140.567 158.018 142.046C155.761 143.384 151.297 145.537 149.399 146.225C149.207 146.289 149.168 146.455 149.168 147.079V147.844L149.848 147.576C155.761 145.27 161.674 141.816 166.791 137.675C167.843 136.834 168.24 136.592 169.036 136.337C170.511 135.853 171.691 135.687 173.037 135.776C174.538 135.865 175.128 136.069 176.629 137.025C178.001 137.891 178.809 138.223 180.399 138.554C181.772 138.834 182.824 138.86 183.862 138.618C185.184 138.299 188.89 136.923 191.366 135.802C193.623 134.795 195.944 133.954 197.779 133.495C198.843 133.227 201.691 133.304 202.845 133.635C204.974 134.247 204.576 133.954 201.819 132.871C198.561 131.584 191.648 129.277 190.237 128.997C188.185 128.589 184.594 128.194 183.709 128.27C182.747 128.372 181.028 128.857 179.733 129.392C178.411 129.927 177.103 130.806 175.013 132.552C172.986 134.221 172.422 134.591 171.229 134.961C169.305 135.547 169.305 135.572 171.242 133.673C175.154 129.812 178.514 125.454 181.233 120.701C181.823 119.682 182.387 118.751 182.503 118.611C182.862 118.203 184.401 117.375 185.402 117.057C186.556 116.7 187.069 116.674 188.608 116.955C189.596 117.146 189.916 117.146 190.968 117.006C192.43 116.827 193.597 116.419 194.495 115.808C195.534 115.094 197.625 113.31 199.536 111.513C201.921 109.258 204.153 107.601 205.5 107.066C206.603 106.633 207.962 106.301 208.655 106.301C208.873 106.301 209.065 106.238 209.065 106.161C209.065 105.996 206.859 106.059 201.755 106.378C198.086 106.607 196.983 106.76 194.38 107.461C192.058 108.073 191.481 108.328 190.147 109.321C188.647 110.43 187.492 111.755 186.107 113.96C185.44 115.018 184.658 116.126 184.376 116.419C183.914 116.891 183.029 117.592 183.029 117.49C183.029 117.464 183.349 116.738 183.747 115.859C186.594 109.513 188.287 103.065 188.826 96.4382L188.98 94.514L189.621 93.8387C190.596 92.8065 190.955 92.6408 192.34 92.5261C193.828 92.4242 195.021 91.9145 195.893 91.0352C196.56 90.3598 197.907 88.0915 199.125 85.6066C200.729 82.3572 201.986 80.7898 203.653 80.0124C204.102 79.8086 204.435 79.6174 204.41 79.5919C204.217 79.4008 197.201 81.771 195.983 82.4336C194.508 83.2492 192.879 84.4215 192.494 84.9568C191.263 86.6261 190.737 87.8877 190.109 90.7166C189.762 92.2458 189.288 93.5583 189.083 93.5583C189.031 93.5583 188.993 92.3095 188.98 90.7803C188.967 87.6965 188.813 85.836 188.339 82.7267C187.826 79.4135 186.902 75.6798 185.876 72.8254L185.504 71.7932L185.735 71.0413C186.043 70.0729 186.697 69.0152 187.287 68.5437C187.633 68.2633 188.069 68.0977 188.852 67.932C190.378 67.6134 191.597 66.7979 192.135 65.7657C192.469 65.1285 193.251 62.5417 193.559 61.0763C193.828 59.7765 194.444 57.865 194.854 57.0495C195.175 56.425 196.316 55.3036 196.868 55.087C197.086 54.9851 197.266 54.8704 197.266 54.8067C197.266 54.4499 190.647 57.7758 189.403 58.757C187.608 60.1715 187.095 60.7704 186.646 61.9046C186.235 62.9622 185.889 65.0266 186.03 65.5746C186.069 65.7402 186.107 66.4793 186.12 67.2312C186.133 68.5692 186.12 68.6329 185.658 69.5504C185.402 70.0729 185.145 70.4934 185.094 70.4934C185.042 70.4934 184.812 70.0219 184.568 69.4357C183.144 65.9314 180.387 61.1145 177.873 57.6866C176.924 56.4123 176.693 55.6732 176.68 53.9911V52.7041L177.347 51.5699C178.065 50.3339 178.54 48.8684 178.54 47.9254C178.54 47.2118 177.834 44.8543 177.052 42.9684C176.128 40.7256 175.808 39.3111 175.885 37.9349C175.923 37.2977 176.039 36.5459 176.154 36.24C176.257 35.9469 176.308 35.7048 176.257 35.7048C176.205 35.7048 176.064 35.9469 175.949 36.24C173.602 42.2548 173.14 43.7839 172.768 46.6639C172.64 47.6196 172.653 47.8617 172.896 48.7665C173.255 50.1555 173.756 51.1367 174.756 52.3345C175.218 52.8952 175.718 53.5579 175.846 53.8127C176.116 54.3224 176.423 55.4311 176.334 55.5203C176.295 55.5585 175.641 54.8576 174.871 53.9656C172.242 50.92 169.061 47.9382 165.393 45.0965C163.11 43.3379 162.315 42.0254 162.392 40.1649C162.482 37.8584 162.43 36.788 162.199 36.1126C161.904 35.2461 160.84 33.9208 158.89 31.9711C156.864 29.9577 156.069 28.9 155.658 27.6512C155.479 27.116 155.325 26.5171 155.312 26.3132C155.312 26.122 155.248 25.8417 155.184 25.7015C155.12 25.5359 155.094 26.1475 155.145 27.3581Z" fill="#C1C1C1"/>
<g filter="url(#filter1_bd_382_1106)">
<rect x="93" y="63" width="48" height="48" rx="9" fill="url(#paint1_linear_382_1106)" shape-rendering="crispEdges"/>
<path d="M110.083 93V90.5479H103.896V88.7197C104.88 86.9209 106.641 84.1201 109.178 80.3174H111.981V88.79H113.73V90.5479H111.981V93H110.083ZM105.785 88.7109V88.834H110.109V82.0488H109.995C108.507 84.2051 107.104 86.4258 105.785 88.7109ZM118.011 92.7715C117.765 93.0234 117.457 93.1494 117.088 93.1494C116.719 93.1494 116.411 93.0234 116.165 92.7715C115.919 92.5195 115.796 92.209 115.796 91.8398C115.796 91.4707 115.919 91.1602 116.165 90.9082C116.411 90.6562 116.719 90.5303 117.088 90.5303C117.457 90.5303 117.765 90.6562 118.011 90.9082C118.257 91.1602 118.38 91.4707 118.38 91.8398C118.38 92.209 118.257 92.5195 118.011 92.7715ZM128.628 92.2793C127.743 92.9648 126.595 93.3076 125.183 93.3076C123.771 93.3076 122.622 92.9648 121.737 92.2793C120.858 91.5938 120.419 90.7031 120.419 89.6074C120.419 88.7988 120.662 88.0986 121.148 87.5068C121.641 86.915 122.294 86.5371 123.108 86.373V86.2236C122.446 86.0537 121.916 85.7168 121.518 85.2129C121.125 84.7031 120.929 84.1084 120.929 83.4287C120.929 82.4268 121.327 81.6064 122.124 80.9678C122.921 80.3291 123.94 80.0098 125.183 80.0098C126.425 80.0098 127.444 80.3291 128.241 80.9678C129.038 81.6064 129.437 82.4268 129.437 83.4287C129.437 84.1143 129.24 84.709 128.848 85.2129C128.455 85.7168 127.925 86.0537 127.257 86.2236V86.373C128.071 86.5254 128.725 86.8975 129.217 87.4893C129.709 88.0752 129.955 88.7783 129.955 89.5986C129.955 90.6943 129.513 91.5879 128.628 92.2793ZM123.196 91.0576C123.706 91.4678 124.368 91.6729 125.183 91.6729C125.997 91.6729 126.659 91.4678 127.169 91.0576C127.679 90.6416 127.934 90.1025 127.934 89.4404C127.934 88.7783 127.679 88.2393 127.169 87.8232C126.659 87.4072 125.997 87.1992 125.183 87.1992C124.368 87.1992 123.706 87.4072 123.196 87.8232C122.687 88.2393 122.432 88.7783 122.432 89.4404C122.432 90.1025 122.687 90.6416 123.196 91.0576ZM123.504 85.0459C123.932 85.4092 124.491 85.5908 125.183 85.5908C125.874 85.5908 126.434 85.4092 126.861 85.0459C127.289 84.6826 127.503 84.208 127.503 83.6221C127.503 83.0303 127.289 82.5498 126.861 82.1807C126.434 81.8115 125.874 81.627 125.183 81.627C124.491 81.627 123.932 81.8115 123.504 82.1807C123.082 82.5498 122.871 83.0303 122.871 83.6221C122.871 84.208 123.082 84.6826 123.504 85.0459Z" fill="white"/>
</g>
</g>
</g>
<defs>
<filter id="filter0_b_382_1106" x="-6" y="-6" width="246" height="208" filterUnits="userSpaceOnUse" color-interpolation-filters="sRGB">
<feFlood flood-opacity="0" result="BackgroundImageFix"/>
<feGaussianBlur in="BackgroundImageFix" stdDeviation="3"/>
<feComposite in2="SourceAlpha" operator="in" result="effect1_backgroundBlur_382_1106"/>
<feBlend mode="normal" in="SourceGraphic" in2="effect1_backgroundBlur_382_1106" result="shape"/>
</filter>
<filter id="filter1_bd_382_1106" x="63" y="33" width="108" height="108" filterUnits="userSpaceOnUse" color-interpolation-filters="sRGB">
<feFlood flood-opacity="0" result="BackgroundImageFix"/>
<feGaussianBlur in="BackgroundImageFix" stdDeviation="15"/>
<feComposite in2="SourceAlpha" operator="in" result="effect1_backgroundBlur_382_1106"/>
<feColorMatrix in="SourceAlpha" type="matrix" values="0 0 0 0 0 0 0 0 0 0 0 0 0 0 0 0 0 0 127 0" result="hardAlpha"/>
<feOffset dx="6" dy="6"/>
<feGaussianBlur stdDeviation="9"/>
<feComposite in2="hardAlpha" operator="out"/>
<feColorMatrix type="matrix" values="0 0 0 0 0 0 0 0 0 0 0 0 0 0 0 0 0 0 0.08 0"/>
<feBlend mode="normal" in2="effect1_backgroundBlur_382_1106" result="effect2_dropShadow_382_1106"/>
<feBlend mode="normal" in="SourceGraphic" in2="effect2_dropShadow_382_1106" result="shape"/>
</filter>
<linearGradient id="paint0_linear_382_1106" x1="1" y1="1" x2="268.01" y2="90.1865" gradientUnits="userSpaceOnUse">
<stop stop-color="white"/>
<stop offset="1" stop-color="white" stop-opacity="0"/>
</linearGradient>
<linearGradient id="paint1_linear_382_1106" x1="93" y1="105.176" x2="142.8" y2="102.515" gradientUnits="userSpaceOnUse">
<stop stop-color="#6356FE"/>
<stop offset="0.303754" stop-color="#764AEF"/>
<stop offset="0.618202" stop-color="#8A3EDF"/>
<stop offset="1" stop-color="#A330CB"/>
</linearGradient>
<clipPath id="clip0_382_1106">
<rect width="184" height="146" fill="white" transform="translate(25 25)"/>
</clipPath>
</defs>
</svg>
