<svg width="280" height="70" viewBox="0 0 280 70" fill="none" xmlns="http://www.w3.org/2000/svg">
<g filter="url(#filter0_b_2131_1719)">
<g clip-path="url(#clip0_2131_1719)">
<rect width="280" height="70" rx="15" fill="#1E1E20" fill-opacity="0.75"/>
<g filter="url(#filter1_b_2131_1719)">
<rect x="-74" y="20" width="121.5" height="30" rx="7.5" fill="url(#paint0_linear_2131_1719)" fill-opacity="0.04"/>
<rect x="-73.25" y="20.75" width="120" height="28.5" rx="6.75" stroke="url(#paint1_linear_2131_1719)" stroke-opacity="0.04" stroke-width="1.5"/>
<path opacity="0.2" d="M-54.8677 30.9224C-53.8013 30.9224 -52.9604 31.271 -52.3452 31.9683C-51.73 32.6621 -51.4224 33.6055 -51.4224 34.7983C-51.4224 35.9912 -51.73 36.9363 -52.3452 37.6335C-52.9604 38.3308 -53.8013 38.6794 -54.8677 38.6794C-55.9375 38.6794 -56.7817 38.3325 -57.4004 37.6387C-58.0156 36.9414 -58.3232 35.9946 -58.3232 34.7983C-58.3232 33.6055 -58.0139 32.6621 -57.3953 31.9683C-56.7732 31.271 -55.9307 30.9224 -54.8677 30.9224ZM-54.8677 31.9939C-55.5649 31.9939 -56.1204 32.2468 -56.5339 32.7527C-56.9441 33.2585 -57.1492 33.9404 -57.1492 34.7983C-57.1492 35.6562 -56.9458 36.3398 -56.5391 36.8491C-56.1323 37.355 -55.5752 37.6079 -54.8677 37.6079C-54.167 37.6079 -53.6133 37.355 -53.2065 36.8491C-52.7998 36.3398 -52.5964 35.6562 -52.5964 34.7983C-52.5964 33.937 -52.7998 33.2551 -53.2065 32.7527C-53.6133 32.2468 -54.167 31.9939 -54.8677 31.9939ZM-47.249 37.6335V33.7832C-47.7993 33.7969 -48.2368 33.9746 -48.5615 34.3164C-48.8862 34.6582 -49.0486 35.1213 -49.0486 35.7058C-49.0486 36.2937 -48.8879 36.7585 -48.5667 37.1003C-48.2419 37.4387 -47.8027 37.6165 -47.249 37.6335ZM-44.8599 37.1003C-44.5352 36.7551 -44.3728 36.2903 -44.3728 35.7058C-44.3728 35.1213 -44.5352 34.6599 -44.8599 34.3215C-45.1846 33.9797 -45.6238 33.8003 -46.1775 33.7832V37.6335C-45.6238 37.6199 -45.1846 37.4421 -44.8599 37.1003ZM-47.249 38.5718C-48.1377 38.5547 -48.8469 38.2898 -49.3767 37.7771C-49.9065 37.261 -50.1714 36.5706 -50.1714 35.7058C-50.1714 34.8445 -49.9065 34.1575 -49.3767 33.6448C-48.8435 33.1287 -48.1343 32.8621 -47.249 32.845V31.071H-46.1724V32.845C-45.2837 32.8621 -44.5762 33.1287 -44.0498 33.6448C-43.52 34.1575 -43.2551 34.8462 -43.2551 35.7109C-43.2551 36.5723 -43.52 37.261 -44.0498 37.7771C-44.5796 38.2898 -45.2871 38.5547 -46.1724 38.5718V40.356H-47.249V38.5718ZM-40.7378 38.5H-41.8298V32.9167H-40.7378V36.7568H-40.6506L-38.0769 32.9167H-36.9849V38.5H-38.0769V34.6394H-38.1589L-40.7378 38.5ZM-29.7354 39.9612H-30.7556V38.5H-35.2878V32.9167H-34.1855V37.572H-31.7092V32.9167H-30.6069V37.572H-29.7354V39.9612ZM-27.5308 38.5H-28.6228V32.9167H-27.5308V36.7568H-27.4436L-24.8699 32.9167H-23.7778V38.5H-24.8699V34.6394H-24.9519L-27.5308 38.5ZM-20.2505 37.6643C-19.8369 37.6643 -19.4934 37.5481 -19.22 37.3157C-18.9431 37.0833 -18.8047 36.7927 -18.8047 36.4441V35.9775L-20.1685 36.0647C-20.5513 36.0886 -20.8333 36.1672 -21.0144 36.3005C-21.1956 36.4338 -21.2861 36.6235 -21.2861 36.8696C-21.2861 37.1157 -21.1904 37.3105 -20.999 37.4541C-20.8076 37.5942 -20.5581 37.6643 -20.2505 37.6643ZM-20.5325 38.5923C-21.0793 38.5923 -21.5271 38.4402 -21.8757 38.136C-22.2209 37.8284 -22.3936 37.4233 -22.3936 36.9209C-22.3936 36.4219 -22.2141 36.0305 -21.8552 35.7468C-21.4963 35.4597 -20.9836 35.2957 -20.3171 35.2546L-18.8047 35.1675V34.6855C-18.8047 34.3882 -18.9021 34.1609 -19.0969 34.0037C-19.2917 33.843 -19.5754 33.7627 -19.948 33.7627C-20.2556 33.7627 -20.512 33.8174 -20.717 33.9268C-20.9187 34.0327 -21.0503 34.1848 -21.1118 34.3831H-22.1782C-22.1235 33.9045 -21.8894 33.5234 -21.4758 33.2397C-21.0588 32.9526 -20.5325 32.8091 -19.8967 32.8091C-19.1995 32.8091 -18.6611 32.9749 -18.2817 33.3064C-17.8989 33.6345 -17.7075 34.0942 -17.7075 34.6855V38.5H-18.7688V37.7156H-18.856C-19.0234 37.9958 -19.2542 38.2129 -19.5481 38.3667C-19.8386 38.5171 -20.1667 38.5923 -20.5325 38.5923ZM-14.5288 35.9468C-14.5562 36.3672 -14.604 36.7295 -14.6724 37.0337C-14.7407 37.3345 -14.8416 37.6045 -14.9749 37.8438C-15.1047 38.0796 -15.2773 38.2573 -15.4927 38.377C-15.708 38.4966 -15.9661 38.5564 -16.2668 38.5564C-16.4138 38.5564 -16.5403 38.5359 -16.6462 38.4949V37.4644C-16.554 37.4917 -16.4548 37.5054 -16.3489 37.5054C-16.0925 37.5054 -15.9045 37.3669 -15.7849 37.0901C-15.6619 36.8132 -15.5815 36.4133 -15.5439 35.8904L-15.3491 32.9167H-11.5039V38.5H-12.6062V33.8447H-14.375L-14.5288 35.9468ZM-7.68433 35.552H-8.70459V37.572H-7.68433C-7.34937 37.572 -7.08276 37.4797 -6.88452 37.2952C-6.68286 37.1106 -6.58203 36.8662 -6.58203 36.562C-6.58203 36.2578 -6.68286 36.0134 -6.88452 35.8289C-7.08618 35.6443 -7.35278 35.552 -7.68433 35.552ZM-9.80688 38.5V32.9167H-8.70459V34.6292H-7.60229C-6.9563 34.6292 -6.44189 34.8035 -6.05908 35.1521C-5.67627 35.5007 -5.48486 35.9707 -5.48486 36.562C-5.48486 37.1533 -5.67627 37.625 -6.05908 37.9771C-6.44189 38.3257 -6.9563 38.5 -7.60229 38.5H-9.80688ZM-0.470703 38.5V36.0801H-3.04443V38.5H-4.14673V32.9167H-3.04443V35.1521H-0.470703V32.9167H0.626465V38.5H-0.470703ZM7.37354 38.5V32.9167H8.47583V38.5H7.37354ZM4.44604 35.552H3.42578V37.572H4.44604C4.78101 37.572 5.04761 37.4797 5.24585 37.2952C5.44751 37.1106 5.54834 36.8662 5.54834 36.562C5.54834 36.2578 5.44751 36.0134 5.24585 35.8289C5.04419 35.6443 4.77759 35.552 4.44604 35.552ZM2.32349 38.5V32.9167H3.42578V34.6292H4.52808C5.17407 34.6292 5.68848 34.8035 6.07129 35.1521C6.4541 35.5007 6.64551 35.9707 6.64551 36.562C6.64551 37.1533 6.4541 37.625 6.07129 37.9771C5.68848 38.3257 5.17407 38.5 4.52808 38.5H2.32349ZM11.2598 38.5H10.1677V32.9167H11.2598V36.7568H11.3469L13.9207 32.9167H15.0127V38.5H13.9207V34.6394H13.8386L11.2598 38.5ZM10.7266 30.3892H11.6443C11.6443 30.6729 11.728 30.9138 11.8955 31.1121C12.063 31.3103 12.2817 31.4094 12.5518 31.4094C12.8286 31.4094 13.0491 31.3103 13.2131 31.1121C13.3806 30.9138 13.4661 30.6729 13.4695 30.3892H14.3821C14.3821 30.8916 14.2129 31.3069 13.8745 31.635C13.5361 31.9597 13.0952 32.1221 12.5518 32.1221C12.0083 32.1221 11.5674 31.9597 11.229 31.635C10.894 31.3069 10.7266 30.8916 10.7266 30.3892Z" fill="white"/>
<g opacity="0.2">
<mask id="mask0_2131_1719" style="mask-type:alpha" maskUnits="userSpaceOnUse" x="23" y="30" width="10" height="10">
<rect x="32.5" y="30.5" width="9" height="9" transform="rotate(90 32.5 30.5)" fill="#D9D9D9"/>
</mask>
<g mask="url(#mask0_2131_1719)">
<path d="M24.25 33.5094L24.9156 32.8437L28 35.9281L31.0844 32.8437L31.75 33.5094L28 37.2594L24.25 33.5094Z" fill="white"/>
</g>
</g>
</g>
<g filter="url(#filter2_b_2131_1719)">
<rect x="57.5" y="15" width="165" height="40" rx="10" fill="url(#paint2_linear_2131_1719)" fill-opacity="0.04"/>
<rect x="58.5" y="16" width="163" height="38" rx="9" stroke="url(#paint3_linear_2131_1719)" stroke-opacity="0.28" stroke-width="2"/>
<path d="M86.7969 40H85.2793V31.5371H80.3438V40H78.8057V30.1357H86.7969V40ZM92.3887 40.1436C91.2949 40.1436 90.4359 39.7995 89.8115 39.1113C89.1872 38.4232 88.875 37.4775 88.875 36.2744C88.875 35.0758 89.1872 34.1325 89.8115 33.4443C90.4404 32.7562 91.2995 32.4121 92.3887 32.4121C93.4733 32.4121 94.3278 32.7562 94.9521 33.4443C95.5811 34.1325 95.8955 35.0758 95.8955 36.2744C95.8955 37.4775 95.5833 38.4232 94.959 39.1113C94.3346 39.7995 93.4779 40.1436 92.3887 40.1436ZM92.3887 38.8379C93.0221 38.8379 93.512 38.6146 93.8584 38.168C94.2093 37.7168 94.3848 37.0856 94.3848 36.2744C94.3848 35.4678 94.2093 34.8411 93.8584 34.3945C93.512 33.9434 93.0221 33.7178 92.3887 33.7178C91.7507 33.7178 91.2585 33.9411 90.9121 34.3877C90.5658 34.8343 90.3926 35.4632 90.3926 36.2744C90.3926 37.0902 90.5658 37.7214 90.9121 38.168C91.2585 38.6146 91.7507 38.8379 92.3887 38.8379ZM104.105 34.9893H102.677C102.586 34.611 102.387 34.3057 102.082 34.0732C101.781 33.8408 101.394 33.7246 100.92 33.7246C100.305 33.7246 99.8193 33.9479 99.4639 34.3945C99.113 34.8411 98.9375 35.4609 98.9375 36.2539C98.9375 37.056 99.113 37.6872 99.4639 38.1475C99.8193 38.6032 100.305 38.8311 100.92 38.8311C101.389 38.8311 101.774 38.7262 102.075 38.5166C102.381 38.307 102.581 38.0039 102.677 37.6074H104.105C104.01 38.373 103.682 38.9883 103.121 39.4531C102.561 39.9134 101.829 40.1436 100.927 40.1436C99.8421 40.1436 98.9876 39.7995 98.3633 39.1113C97.7435 38.4186 97.4336 37.4661 97.4336 36.2539C97.4336 35.0599 97.7435 34.1211 98.3633 33.4375C98.9831 32.7539 99.8353 32.4121 100.92 32.4121C101.827 32.4121 102.558 32.6491 103.114 33.123C103.675 33.597 104.005 34.2191 104.105 34.9893ZM111.153 32.5557V33.793H108.809V40H107.339V33.793H104.994V32.5557H111.153ZM116.67 32.4326C117.618 32.4326 118.37 32.779 118.926 33.4717C119.482 34.1598 119.76 35.0941 119.76 36.2744C119.76 37.4548 119.482 38.3913 118.926 39.084C118.374 39.7767 117.627 40.123 116.684 40.123C116.155 40.123 115.69 40.0137 115.289 39.7949C114.888 39.5716 114.59 39.264 114.394 38.8721H114.277V42.4746H112.808V32.5557H114.223V33.7861H114.332C114.555 33.3623 114.874 33.0319 115.289 32.7949C115.704 32.5534 116.164 32.4326 116.67 32.4326ZM116.253 38.8037C116.877 38.8037 117.365 38.5804 117.716 38.1338C118.071 37.6826 118.249 37.0628 118.249 36.2744C118.249 35.486 118.071 34.8685 117.716 34.4219C117.365 33.9753 116.88 33.752 116.26 33.752C115.64 33.752 115.15 33.9798 114.79 34.4355C114.43 34.8867 114.25 35.502 114.25 36.2812C114.25 37.056 114.43 37.6712 114.79 38.127C115.15 38.5781 115.638 38.8037 116.253 38.8037ZM124.107 38.8857C124.659 38.8857 125.117 38.7308 125.481 38.4209C125.851 38.111 126.035 37.7236 126.035 37.2588V36.6367L124.217 36.7529C123.706 36.7848 123.33 36.8896 123.089 37.0674C122.847 37.2451 122.727 37.498 122.727 37.8262C122.727 38.1543 122.854 38.4141 123.109 38.6055C123.365 38.7923 123.697 38.8857 124.107 38.8857ZM123.731 40.123C123.002 40.123 122.405 39.9202 121.94 39.5146C121.48 39.1045 121.25 38.5645 121.25 37.8945C121.25 37.2292 121.489 36.7074 121.968 36.3291C122.446 35.9463 123.13 35.7275 124.019 35.6729L126.035 35.5566V34.9141C126.035 34.5176 125.905 34.2145 125.646 34.0049C125.386 33.7907 125.007 33.6836 124.511 33.6836C124.101 33.6836 123.759 33.7565 123.485 33.9023C123.216 34.0436 123.041 34.2464 122.959 34.5107H121.537C121.61 33.8727 121.922 33.3646 122.474 32.9863C123.03 32.6035 123.731 32.4121 124.579 32.4121C125.509 32.4121 126.227 32.6331 126.732 33.0752C127.243 33.5127 127.498 34.1257 127.498 34.9141V40H126.083V38.9541H125.967C125.743 39.3278 125.436 39.6172 125.044 39.8223C124.657 40.0228 124.219 40.123 123.731 40.123ZM134.621 40V36.7734H131.189V40H129.72V32.5557H131.189V35.5361H134.621V32.5557H136.084V40H134.621ZM139.803 40H138.347V32.5557H139.803V37.6758H139.919L143.351 32.5557H144.807V40H143.351V34.8525H143.241L139.803 40ZM153.044 40H151.574V36.8896H151.458C151.007 37.2861 150.414 37.4844 149.681 37.4844C148.815 37.4844 148.138 37.2383 147.65 36.7461C147.167 36.2493 146.926 35.5863 146.926 34.7568V32.5557H148.396V34.6611C148.396 35.1214 148.521 35.4837 148.771 35.748C149.027 36.0124 149.391 36.1445 149.865 36.1445C150.594 36.1445 151.164 35.9349 151.574 35.5156V32.5557H153.044V40ZM160.201 40V36.7734H156.77V40H155.3V32.5557H156.77V35.5361H160.201V32.5557H161.664V40H160.201ZM167.078 40.1436C165.984 40.1436 165.125 39.7995 164.501 39.1113C163.877 38.4232 163.564 37.4775 163.564 36.2744C163.564 35.0758 163.877 34.1325 164.501 33.4443C165.13 32.7562 165.989 32.4121 167.078 32.4121C168.163 32.4121 169.017 32.7562 169.642 33.4443C170.271 34.1325 170.585 35.0758 170.585 36.2744C170.585 37.4775 170.273 38.4232 169.648 39.1113C169.024 39.7995 168.167 40.1436 167.078 40.1436ZM167.078 38.8379C167.712 38.8379 168.201 38.6146 168.548 38.168C168.899 37.7168 169.074 37.0856 169.074 36.2744C169.074 35.4678 168.899 34.8411 168.548 34.3945C168.201 33.9434 167.712 33.7178 167.078 33.7178C166.44 33.7178 165.948 33.9411 165.602 34.3877C165.255 34.8343 165.082 35.4632 165.082 36.2744C165.082 37.0902 165.255 37.7214 165.602 38.168C165.948 38.6146 166.44 38.8379 167.078 38.8379ZM176.854 34.1895C176.525 33.8385 176.09 33.6631 175.548 33.6631C175.006 33.6631 174.559 33.8385 174.208 34.1895C173.857 34.5404 173.661 35.0075 173.62 35.5908H177.38C177.362 35.0029 177.186 34.5358 176.854 34.1895ZM177.373 37.9902H178.788C178.619 38.6602 178.25 39.1865 177.681 39.5693C177.116 39.9521 176.409 40.1436 175.562 40.1436C174.495 40.1436 173.654 39.8018 173.039 39.1182C172.428 38.43 172.123 37.4912 172.123 36.3018C172.123 35.1123 172.433 34.1667 173.053 33.4648C173.673 32.763 174.507 32.4121 175.555 32.4121C176.589 32.4121 177.4 32.7448 177.988 33.4102C178.581 34.0755 178.877 34.9938 178.877 36.165V36.6777H173.62V36.7598C173.643 37.416 173.832 37.9355 174.188 38.3184C174.543 38.7012 175.015 38.8926 175.603 38.8926C176.5 38.8926 177.09 38.5918 177.373 37.9902Z" fill="url(#paint4_linear_2131_1719)"/>
<mask id="mask1_2131_1719" style="mask-type:alpha" maskUnits="userSpaceOnUse" x="190" y="29" width="13" height="12">
<rect x="202.5" y="29" width="12" height="12" transform="rotate(90 202.5 29)" fill="#D9D9D9"/>
</mask>
<g mask="url(#mask1_2131_1719)">
<path d="M191.5 33.0125L192.387 32.125L196.5 36.2375L200.613 32.125L201.5 33.0125L196.5 38.0125L191.5 33.0125Z" fill="url(#paint5_linear_2131_1719)"/>
</g>
</g>
<g filter="url(#filter3_b_2131_1719)">
<rect x="232.5" y="20" width="121.5" height="30" rx="7.5" fill="url(#paint6_linear_2131_1719)" fill-opacity="0.04"/>
<rect x="233.25" y="20.75" width="120" height="28.5" rx="6.75" stroke="url(#paint7_linear_2131_1719)" stroke-opacity="0.04" stroke-width="1.5"/>
<path opacity="0.2" d="M254.278 38.6794C253.29 38.6794 252.495 38.3752 251.894 37.7668C251.296 37.155 250.961 36.3176 250.889 35.2546H249.628V38.5H248.479V31.1018H249.628V34.2087H250.899C250.998 33.1868 251.347 32.3835 251.945 31.7991C252.543 31.2146 253.321 30.9224 254.278 30.9224C255.324 30.9224 256.149 31.271 256.754 31.9683C257.363 32.6621 257.667 33.6055 257.667 34.7983C257.667 35.9912 257.364 36.9363 256.759 37.6335C256.154 38.3308 255.327 38.6794 254.278 38.6794ZM255.893 32.7527C255.496 32.2468 254.956 31.9939 254.273 31.9939C253.589 31.9939 253.046 32.2468 252.642 32.7527C252.242 33.2585 252.042 33.9404 252.042 34.7983C252.042 35.6562 252.241 36.3398 252.637 36.8491C253.037 37.355 253.582 37.6079 254.273 37.6079C254.956 37.6079 255.496 37.355 255.893 36.8491C256.293 36.3398 256.493 35.6562 256.493 34.7983C256.493 33.937 256.293 33.2551 255.893 32.7527ZM262.091 32.8245C262.802 32.8245 263.366 33.0842 263.783 33.6038C264.2 34.1199 264.409 34.8206 264.409 35.7058C264.409 36.5911 264.2 37.2935 263.783 37.813C263.37 38.3325 262.809 38.5923 262.102 38.5923C261.705 38.5923 261.356 38.5103 261.056 38.3462C260.755 38.1787 260.531 37.948 260.384 37.6541H260.297V40.356H259.195V32.9167H260.256V33.8396H260.338C260.505 33.5217 260.745 33.2739 261.056 33.0962C261.367 32.915 261.712 32.8245 262.091 32.8245ZM261.779 37.6028C262.247 37.6028 262.613 37.4353 262.876 37.1003C263.142 36.762 263.276 36.2971 263.276 35.7058C263.276 35.1145 263.142 34.6514 262.876 34.3164C262.613 33.9814 262.249 33.814 261.784 33.814C261.319 33.814 260.951 33.9849 260.681 34.3267C260.411 34.665 260.276 35.1265 260.276 35.7109C260.276 36.292 260.411 36.7534 260.681 37.0952C260.951 37.4336 261.317 37.6028 261.779 37.6028ZM266.931 38.5H265.839V32.9167H266.931V36.7568H267.018L269.592 32.9167H270.684V38.5H269.592V34.6394H269.51L266.931 38.5ZM275.939 37.572V33.8447H273.976L273.822 35.9468C273.764 36.6475 273.618 37.1602 273.386 37.4849V37.572H275.939ZM272.74 39.9612H271.715V37.572H272.166C272.535 37.3464 272.75 36.7859 272.812 35.8904L273.017 32.9167H277.036V37.572H277.908V39.9612H276.888V38.5H272.74V39.9612ZM280.118 38.5H279.026V32.9167H280.118V36.7568H280.205L282.779 32.9167H283.871V38.5H282.779V34.6394H282.697L280.118 38.5ZM290.049 38.5H288.946V36.1672H288.859C288.521 36.4646 288.076 36.6133 287.526 36.6133C286.877 36.6133 286.369 36.4287 286.003 36.0596C285.641 35.687 285.46 35.1897 285.46 34.5676V32.9167H286.562V34.4958C286.562 34.8411 286.656 35.1128 286.844 35.311C287.036 35.5093 287.309 35.6084 287.665 35.6084C288.211 35.6084 288.639 35.4512 288.946 35.1367V32.9167H290.049V38.5ZM295.017 34.1421C294.771 33.8789 294.444 33.7473 294.037 33.7473C293.631 33.7473 293.296 33.8789 293.032 34.1421C292.769 34.4053 292.622 34.7556 292.592 35.1931H295.411C295.398 34.7522 295.266 34.4019 295.017 34.1421ZM295.406 36.9927H296.468C296.341 37.4951 296.064 37.8899 295.637 38.177C295.213 38.4641 294.683 38.6077 294.048 38.6077C293.248 38.6077 292.617 38.3513 292.156 37.8386C291.698 37.3225 291.469 36.6184 291.469 35.7263C291.469 34.8342 291.701 34.125 292.166 33.5986C292.631 33.0723 293.256 32.8091 294.042 32.8091C294.818 32.8091 295.427 33.0586 295.868 33.5576C296.312 34.0566 296.534 34.7454 296.534 35.6238V36.0083H292.592V36.0698C292.609 36.562 292.75 36.9517 293.017 37.2388C293.284 37.5259 293.637 37.6694 294.078 37.6694C294.752 37.6694 295.194 37.4438 295.406 36.9927ZM302.687 34.7419H301.615C301.547 34.4583 301.398 34.2292 301.169 34.0549C300.943 33.8806 300.653 33.7935 300.297 33.7935C299.836 33.7935 299.472 33.9609 299.205 34.2959C298.942 34.6309 298.811 35.0957 298.811 35.6904C298.811 36.292 298.942 36.7654 299.205 37.1106C299.472 37.4524 299.836 37.6233 300.297 37.6233C300.649 37.6233 300.938 37.5447 301.164 37.3875C301.393 37.2302 301.543 37.0029 301.615 36.7056H302.687C302.615 37.2798 302.369 37.7412 301.948 38.0898C301.528 38.4351 300.979 38.6077 300.302 38.6077C299.489 38.6077 298.848 38.3496 298.38 37.8335C297.915 37.314 297.683 36.5996 297.683 35.6904C297.683 34.7949 297.915 34.0908 298.38 33.5781C298.845 33.0654 299.484 32.8091 300.297 32.8091C300.978 32.8091 301.526 32.9868 301.943 33.3423C302.364 33.6978 302.611 34.1643 302.687 34.7419ZM305.399 36.0596H305.147V38.5H304.045V32.9167H305.147V35.1829H305.394L307.408 32.9167H308.706L306.301 35.511L308.808 38.5H307.434L305.399 36.0596ZM311.074 38.5H309.982V32.9167H311.074V36.7568H311.161L313.735 32.9167H314.827V38.5H313.735V34.6394H313.653L311.074 38.5ZM317.616 38.5H316.524V32.9167H317.616V36.7568H317.703L320.277 32.9167H321.369V38.5H320.277V34.6394H320.195L317.616 38.5ZM317.083 30.3892H318.001C318.001 30.6729 318.084 30.9138 318.252 31.1121C318.419 31.3103 318.638 31.4094 318.908 31.4094C319.185 31.4094 319.406 31.3103 319.57 31.1121C319.737 30.9138 319.823 30.6729 319.826 30.3892H320.739C320.739 30.8916 320.569 31.3069 320.231 31.635C319.893 31.9597 319.452 32.1221 318.908 32.1221C318.365 32.1221 317.924 31.9597 317.585 31.635C317.25 31.3069 317.083 30.8916 317.083 30.3892Z" fill="white"/>
</g>
</g>
<rect x="1" y="1" width="278" height="68" rx="14" stroke="url(#paint8_linear_2131_1719)" stroke-opacity="0.04" stroke-width="2"/>
</g>
<defs>
<filter id="filter0_b_2131_1719" x="-50" y="-50" width="380" height="170" filterUnits="userSpaceOnUse" color-interpolation-filters="sRGB">
<feFlood flood-opacity="0" result="BackgroundImageFix"/>
<feGaussianBlur in="BackgroundImageFix" stdDeviation="25"/>
<feComposite in2="SourceAlpha" operator="in" result="effect1_backgroundBlur_2131_1719"/>
<feBlend mode="normal" in="SourceGraphic" in2="effect1_backgroundBlur_2131_1719" result="shape"/>
</filter>
<filter id="filter1_b_2131_1719" x="-96.5" y="-2.5" width="166.5" height="75" filterUnits="userSpaceOnUse" color-interpolation-filters="sRGB">
<feFlood flood-opacity="0" result="BackgroundImageFix"/>
<feGaussianBlur in="BackgroundImageFix" stdDeviation="11.25"/>
<feComposite in2="SourceAlpha" operator="in" result="effect1_backgroundBlur_2131_1719"/>
<feBlend mode="normal" in="SourceGraphic" in2="effect1_backgroundBlur_2131_1719" result="shape"/>
</filter>
<filter id="filter2_b_2131_1719" x="27.5" y="-15" width="225" height="100" filterUnits="userSpaceOnUse" color-interpolation-filters="sRGB">
<feFlood flood-opacity="0" result="BackgroundImageFix"/>
<feGaussianBlur in="BackgroundImageFix" stdDeviation="15"/>
<feComposite in2="SourceAlpha" operator="in" result="effect1_backgroundBlur_2131_1719"/>
<feBlend mode="normal" in="SourceGraphic" in2="effect1_backgroundBlur_2131_1719" result="shape"/>
</filter>
<filter id="filter3_b_2131_1719" x="210" y="-2.5" width="166.5" height="75" filterUnits="userSpaceOnUse" color-interpolation-filters="sRGB">
<feFlood flood-opacity="0" result="BackgroundImageFix"/>
<feGaussianBlur in="BackgroundImageFix" stdDeviation="11.25"/>
<feComposite in2="SourceAlpha" operator="in" result="effect1_backgroundBlur_2131_1719"/>
<feBlend mode="normal" in="SourceGraphic" in2="effect1_backgroundBlur_2131_1719" result="shape"/>
</filter>
<linearGradient id="paint0_linear_2131_1719" x1="-74" y1="20" x2="-5.81494" y2="97.1312" gradientUnits="userSpaceOnUse">
<stop stop-color="white"/>
<stop offset="1" stop-color="white" stop-opacity="0"/>
</linearGradient>
<linearGradient id="paint1_linear_2131_1719" x1="-74" y1="20" x2="-5.81494" y2="97.1312" gradientUnits="userSpaceOnUse">
<stop stop-color="white"/>
<stop offset="1" stop-color="white" stop-opacity="0"/>
</linearGradient>
<linearGradient id="paint2_linear_2131_1719" x1="57.5" y1="15" x2="148.194" y2="119.493" gradientUnits="userSpaceOnUse">
<stop stop-color="white"/>
<stop offset="1" stop-color="white" stop-opacity="0"/>
</linearGradient>
<linearGradient id="paint3_linear_2131_1719" x1="57.5" y1="50.1468" x2="221.223" y2="14.0589" gradientUnits="userSpaceOnUse">
<stop stop-color="#6356FE"/>
<stop offset="0.303754" stop-color="#764AEF"/>
<stop offset="0.618202" stop-color="#8A3EDF"/>
<stop offset="1" stop-color="#A330CB"/>
</linearGradient>
<linearGradient id="paint4_linear_2131_1719" x1="77.5" y1="42.5734" x2="177.124" y2="15.1578" gradientUnits="userSpaceOnUse">
<stop stop-color="#6356FE"/>
<stop offset="0.303754" stop-color="#764AEF"/>
<stop offset="0.618202" stop-color="#8A3EDF"/>
<stop offset="1" stop-color="#A330CB"/>
</linearGradient>
<linearGradient id="paint5_linear_2131_1719" x1="192.713" y1="32.125" x2="192.906" y2="38.2447" gradientUnits="userSpaceOnUse">
<stop stop-color="#6356FE"/>
<stop offset="0.303754" stop-color="#764AEF"/>
<stop offset="0.618202" stop-color="#8A3EDF"/>
<stop offset="1" stop-color="#A330CB"/>
</linearGradient>
<linearGradient id="paint6_linear_2131_1719" x1="232.5" y1="20" x2="300.685" y2="97.1312" gradientUnits="userSpaceOnUse">
<stop stop-color="white"/>
<stop offset="1" stop-color="white" stop-opacity="0"/>
</linearGradient>
<linearGradient id="paint7_linear_2131_1719" x1="232.5" y1="20" x2="300.685" y2="97.1312" gradientUnits="userSpaceOnUse">
<stop stop-color="white"/>
<stop offset="1" stop-color="white" stop-opacity="0"/>
</linearGradient>
<linearGradient id="paint8_linear_2131_1719" x1="0" y1="0" x2="159.329" y2="178.008" gradientUnits="userSpaceOnUse">
<stop stop-color="white"/>
<stop offset="1" stop-color="white" stop-opacity="0"/>
</linearGradient>
<clipPath id="clip0_2131_1719">
<rect width="280" height="70" rx="15" fill="white"/>
</clipPath>
</defs>
</svg>
