<svg width="25" height="22" viewBox="0 0 25 22" fill="none" xmlns="http://www.w3.org/2000/svg">
<path d="M13.4456 4.12744C13.1354 4.12867 12.8338 4.22921 12.5849 4.41433L8.37911 7.57012H6.27334C5.81681 7.57012 5.37898 7.75148 5.05617 8.07429C4.73336 8.3971 4.552 8.83493 4.552 9.29146V12.7341C4.552 13.1907 4.73336 13.6285 5.05617 13.9513C5.37898 14.2741 5.81681 14.4555 6.27334 14.4555H8.37911L12.5849 17.6113C12.8338 17.7964 13.1354 17.8969 13.4456 17.8982C13.826 17.8982 14.1909 17.747 14.4599 17.478C14.7289 17.209 14.88 16.8442 14.88 16.4637V5.56189C14.88 5.18145 14.7289 4.81659 14.4599 4.54758C14.1909 4.27857 13.826 4.12744 13.4456 4.12744Z" fill="url(#paint0_linear_2119_781)"/>
<path d="M18.7701 6.54912C18.7166 6.49562 18.6531 6.45318 18.5832 6.42423C18.5133 6.39527 18.4384 6.38037 18.3628 6.38037C18.2871 6.38037 18.2122 6.39527 18.1423 6.42423C18.0724 6.45318 18.0089 6.49562 17.9554 6.54912C17.9019 6.60261 17.8594 6.66613 17.8305 6.73602C17.8015 6.80592 17.7866 6.88084 17.7866 6.9565C17.7866 7.03216 17.8015 7.10707 17.8305 7.17697C17.8594 7.24687 17.9019 7.31038 17.9554 7.36388C18.9224 8.33214 19.4656 9.64465 19.4656 11.0131C19.4656 12.3816 18.9224 13.6941 17.9554 14.6624C17.9016 14.7157 17.8589 14.7792 17.8298 14.8491C17.8006 14.919 17.7856 14.994 17.7856 15.0697C17.7856 15.1455 17.8006 15.2205 17.8298 15.2904C17.8589 15.3603 17.9016 15.4238 17.9554 15.4771C18.0087 15.5309 18.0722 15.5736 18.1421 15.6027C18.212 15.6319 18.287 15.6469 18.3628 15.6469C18.4385 15.6469 18.5135 15.6319 18.5834 15.6027C18.6533 15.5736 18.7168 15.5309 18.7701 15.4771C19.3565 14.891 19.8217 14.1951 20.1391 13.4291C20.4565 12.6632 20.6198 11.8422 20.6198 11.0131C20.6198 10.184 20.4565 9.36305 20.1391 8.5971C19.8217 7.83115 19.3565 7.13524 18.7701 6.54912Z" fill="url(#paint1_linear_2119_781)"/>
<path d="M17.141 8.17219C17.0891 8.11252 17.0255 8.06422 16.954 8.03031C16.8826 7.9964 16.8049 7.97761 16.7259 7.97514C16.6469 7.97266 16.5682 7.98654 16.4948 8.01591C16.4214 8.04527 16.3549 8.0895 16.2993 8.1458C16.2438 8.2021 16.2006 8.26926 16.1722 8.34308C16.1439 8.4169 16.1312 8.49577 16.1348 8.57475C16.1383 8.65373 16.1582 8.73112 16.1932 8.80205C16.2281 8.87299 16.2773 8.93594 16.3377 8.98696C16.8738 9.52472 17.1748 10.2531 17.1748 11.0124C17.1748 11.7717 16.8738 12.5001 16.3377 13.0378C16.2571 13.1178 16.202 13.2198 16.1794 13.331C16.1568 13.4422 16.1677 13.5576 16.2107 13.6626C16.2537 13.7676 16.3269 13.8575 16.421 13.921C16.5151 13.9844 16.6258 14.0185 16.7393 14.019C16.8898 14.0184 17.0341 13.9586 17.141 13.8526C17.514 13.4796 17.8099 13.0369 18.0117 12.5495C18.2136 12.0622 18.3175 11.5399 18.3175 11.0124C18.3175 10.4849 18.2136 9.9626 18.0117 9.47528C17.8099 8.98795 17.514 8.54516 17.141 8.17219Z" fill="url(#paint2_linear_2119_781)"/>
<defs>
<linearGradient id="paint0_linear_2119_781" x1="4.552" y1="16.2274" x2="15.2808" y2="15.7974" gradientUnits="userSpaceOnUse">
<stop stop-color="#6356FE"/>
<stop offset="0.303754" stop-color="#764AEF"/>
<stop offset="0.618202" stop-color="#8A3EDF"/>
<stop offset="1" stop-color="#A330CB"/>
</linearGradient>
<linearGradient id="paint1_linear_2119_781" x1="17.7856" y1="14.5225" x2="20.7337" y2="14.4744" gradientUnits="userSpaceOnUse">
<stop stop-color="#6356FE"/>
<stop offset="0.303754" stop-color="#764AEF"/>
<stop offset="0.618202" stop-color="#8A3EDF"/>
<stop offset="1" stop-color="#A330CB"/>
</linearGradient>
<linearGradient id="paint2_linear_2119_781" x1="16.1342" y1="13.2857" x2="18.405" y2="13.2418" gradientUnits="userSpaceOnUse">
<stop stop-color="#6356FE"/>
<stop offset="0.303754" stop-color="#764AEF"/>
<stop offset="0.618202" stop-color="#8A3EDF"/>
<stop offset="1" stop-color="#A330CB"/>
</linearGradient>
</defs>
</svg>
