<svg width="281" height="54" viewBox="0 0 281 54" fill="none" xmlns="http://www.w3.org/2000/svg">
<g filter="url(#filter0_b_2002_3783)">
<rect width="54" height="54" rx="10" fill="#1E1E20" fill-opacity="0.75"/>
<rect x="1" y="1" width="52" height="52" rx="9" stroke="url(#paint0_linear_2002_3783)" stroke-opacity="0.28" stroke-width="2"/>
<mask id="mask0_2002_3783" style="mask-type:alpha" maskUnits="userSpaceOnUse" x="9" y="9" width="36" height="36">
<rect x="9" y="9" width="36" height="36" fill="#D9D9D9"/>
</mask>
<g mask="url(#mask0_2002_3783)">
<path d="M39.3791 32.1849C39.0903 32.494 38.6062 32.4905 38.302 32.1964C37.9792 31.8845 37.9837 31.3682 38.2862 31.0365C39.0802 30.1664 39.7242 29.1898 40.218 28.107C40.8265 26.7733 41.1308 25.3581 41.1308 23.8613C41.1308 22.3646 40.8265 20.9522 40.218 19.6241C39.7242 18.5462 39.0804 17.5726 38.2864 16.7034C37.9829 16.3711 37.9764 15.8542 38.2975 15.5389C38.6036 15.2384 39.0948 15.2329 39.3874 15.5466C40.33 16.5573 41.0985 17.7079 41.693 18.9982C42.3977 20.5273 42.75 22.1483 42.75 23.8613C42.75 25.5743 42.3977 27.1954 41.693 28.7244C41.0968 30.0185 40.3255 31.172 39.3791 32.1849ZM34.2941 27.2585C34.0222 27.5902 33.5288 27.5826 33.2204 27.2845C32.8913 26.9664 32.901 26.4419 33.1691 26.0708C33.3208 25.8608 33.4528 25.6389 33.565 25.405C33.7967 24.9222 33.9125 24.4076 33.9125 23.8613C33.9125 23.2771 33.7967 22.753 33.565 22.2891C33.4537 22.0662 33.3229 21.8528 33.1726 21.6489C32.9009 21.2805 32.8913 20.7563 33.2204 20.4381C33.5288 20.14 34.022 20.1324 34.2957 20.4627C34.5994 20.8292 34.8562 21.2293 35.0664 21.6632C35.3881 22.3281 35.549 23.0608 35.549 23.8613C35.549 24.6239 35.3881 25.3471 35.0664 26.031C34.8559 26.478 34.5984 26.8872 34.2941 27.2585ZM21.9658 28.3005C20.6942 28.3005 19.6109 27.8679 18.7159 27.0028C17.8209 26.1379 17.3733 25.0907 17.3733 23.8613C17.3733 22.6319 17.8209 21.5848 18.7159 20.7199C19.6109 19.8547 20.6942 19.4222 21.9658 19.4222C23.2377 19.4222 24.321 19.8547 25.2158 20.7199C26.1108 21.5848 26.5584 22.6319 26.5584 23.8613C26.5584 25.0907 26.1108 26.1379 25.2158 27.0028C24.321 27.8679 23.2377 28.3005 21.9658 28.3005ZM12.25 39C11.6977 39 11.25 38.5523 11.25 38V36.564C11.25 35.8831 11.4276 35.2942 11.7827 34.7972C12.1381 34.3 12.6396 33.9044 13.2872 33.6105C14.5294 33.0262 15.9082 32.5453 17.4235 32.1677C18.9385 31.7902 20.4526 31.6014 21.9658 31.6014C23.4791 31.6014 24.9932 31.7902 26.5082 32.1677C28.0235 32.5453 29.4023 33.0262 30.6445 33.6105C31.2923 33.9044 31.7938 34.3 32.149 34.7972C32.5041 35.2942 32.6817 35.8831 32.6817 36.564V38C32.6817 38.5523 32.234 39 31.6817 39H12.25Z" fill="url(#paint1_linear_2002_3783)"/>
</g>
</g>
<mask id="mask1_2002_3783" style="mask-type:alpha" maskUnits="userSpaceOnUse" x="79" y="3" width="224" height="48">
<rect x="79" y="46" width="3" height="5" rx="1" fill="#0057FF"/>
<rect x="92" y="32" width="3" height="19" rx="1" fill="#0057FF"/>
<rect x="105" y="16" width="3" height="35" rx="1" fill="#0057FF"/>
<rect x="118" y="24" width="3" height="27" rx="1" fill="#0057FF"/>
<rect x="131" y="37" width="3" height="14" rx="1" fill="#0057FF"/>
<rect x="144" y="32" width="3" height="19" rx="1" fill="#0057FF"/>
<rect x="157" y="21" width="3" height="30" rx="1" fill="#0057FF"/>
<rect x="170" y="16" width="3" height="35" rx="1" fill="#0057FF"/>
<rect x="183" y="8" width="3" height="43" rx="1" fill="#0057FF"/>
<rect x="196" y="24" width="3" height="27" rx="1" fill="#0057FF"/>
<rect opacity="0.1" x="209" y="3" width="3" height="48" rx="1" fill="black"/>
<rect opacity="0.1" x="222" y="16" width="3" height="35" rx="1" fill="black"/>
<rect opacity="0.1" x="235" y="27" width="3" height="24" rx="1" fill="black"/>
<rect opacity="0.1" x="248" y="35" width="3" height="16" rx="1" fill="black"/>
<rect opacity="0.1" x="261" y="19" width="3" height="32" rx="1" fill="black"/>
<rect opacity="0.1" x="274" y="30" width="3" height="21" rx="1" fill="black"/>
</mask>
<g mask="url(#mask1_2002_3783)">
<rect x="79" y="3" width="202" height="48" fill="url(#paint2_linear_2002_3783)"/>
</g>
<defs>
<filter id="filter0_b_2002_3783" x="-30" y="-30" width="114" height="114" filterUnits="userSpaceOnUse" color-interpolation-filters="sRGB">
<feFlood flood-opacity="0" result="BackgroundImageFix"/>
<feGaussianBlur in="BackgroundImageFix" stdDeviation="15"/>
<feComposite in2="SourceAlpha" operator="in" result="effect1_backgroundBlur_2002_3783"/>
<feBlend mode="normal" in="SourceGraphic" in2="effect1_backgroundBlur_2002_3783" result="shape"/>
</filter>
<linearGradient id="paint0_linear_2002_3783" x1="1.87508e-07" y1="47.4482" x2="56.0253" y2="44.4544" gradientUnits="userSpaceOnUse">
<stop stop-color="#6356FE"/>
<stop offset="0.303754" stop-color="#764AEF"/>
<stop offset="0.618202" stop-color="#8A3EDF"/>
<stop offset="1" stop-color="#A330CB"/>
</linearGradient>
<linearGradient id="paint1_linear_2002_3783" x1="11.25" y1="36.0881" x2="43.8643" y2="33.8007" gradientUnits="userSpaceOnUse">
<stop stop-color="#6356FE"/>
<stop offset="0.303754" stop-color="#764AEF"/>
<stop offset="0.618202" stop-color="#8A3EDF"/>
<stop offset="1" stop-color="#A330CB"/>
</linearGradient>
<linearGradient id="paint2_linear_2002_3783" x1="79" y1="45.1761" x2="279.058" y2="0.188358" gradientUnits="userSpaceOnUse">
<stop stop-color="#6356FE"/>
<stop offset="0.303754" stop-color="#764AEF"/>
<stop offset="0.618202" stop-color="#8A3EDF"/>
<stop offset="1" stop-color="#A330CB"/>
</linearGradient>
</defs>
</svg>
