<svg width="12" height="12" viewBox="0 0 12 12" fill="none" xmlns="http://www.w3.org/2000/svg">
<path d="M10.5703 5.26036L5.99982 9.05554L1.42935 5.26036C1.3775 5.21547 1.30994 5.19301 1.24152 5.19793C1.17311 5.20285 1.10946 5.23475 1.06456 5.2866C1.01967 5.33846 0.997211 5.40602 1.00213 5.47443C1.00705 5.54284 1.03895 5.6065 1.0908 5.65139L5.83054 9.5803C5.87602 9.61861 5.93358 9.63963 5.99305 9.63963C6.05251 9.63963 6.11007 9.61861 6.15555 9.5803L10.9088 5.65139C10.9607 5.6065 10.9926 5.54284 10.9975 5.47443C11.0024 5.40602 10.98 5.33846 10.9351 5.2866C10.8902 5.23475 10.8265 5.20285 10.7581 5.19793C10.6897 5.19301 10.6221 5.21547 10.5703 5.26036Z" fill="white"/>
<path d="M5.83072 6.73961C5.87676 6.77671 5.9341 6.79694 5.99323 6.79694C6.05235 6.79694 6.1097 6.77671 6.15573 6.73961L10.909 2.80901C10.9494 2.77521 10.9783 2.72967 10.9917 2.67872C11.0051 2.62776 11.0022 2.57391 10.9836 2.52462C10.965 2.47533 10.9316 2.43305 10.8879 2.40363C10.8442 2.37421 10.7924 2.35911 10.7397 2.36043H1.26026C1.2076 2.35911 1.15583 2.37421 1.11212 2.40363C1.06842 2.43305 1.03495 2.47533 1.01635 2.52462C0.997752 2.57391 0.994944 2.62776 1.00832 2.67872C1.02169 2.72967 1.05058 2.77521 1.09098 2.80901L5.83072 6.73961Z" fill="white"/>
</svg>
